<svg width="1512" height="1991" viewBox="0 0 1512 1991" fill="none" xmlns="http://www.w3.org/2000/svg">
<g clip-path="url(#clip0_1102_162)">
<rect width="1512" height="1990" transform="translate(0 0.25)" fill="#251B41"/>
<path fill-rule="evenodd" clip-rule="evenodd" d="M1512 0.25H0V942.112C28.5658 942.112 56.5109 941.837 84.7241 940.062C100.064 939.096 109.848 935.104 121.115 930.506C122.592 929.903 124.094 929.29 125.638 928.672C129.398 927.167 132.475 925.688 135.433 924.266C140.991 921.594 146.131 919.123 154.603 917.055C166.46 914.16 177.759 910.577 189.07 906.99C196.53 904.624 203.995 902.257 211.629 900.084C218.442 898.145 225.123 896.036 231.792 893.93C239.687 891.438 247.564 888.951 255.621 886.759C262.436 884.904 269.749 884.786 277.059 884.667C280.798 884.606 284.536 884.546 288.207 884.253C296.026 883.629 303.595 882.334 311.169 881.038C315.327 880.327 319.486 879.615 323.69 879.014C342.197 876.367 342.7 864.955 343.203 853.544C343.536 846.004 343.868 838.464 349.397 833.456C363.84 820.37 385.628 820.701 408.182 821.044C411.809 821.1 415.456 821.155 419.095 821.155C431.429 821.155 444.397 821.569 457.628 821.992C512.51 823.745 571.915 825.643 609.362 798.718C630.795 783.307 663.698 780.088 693.724 777.989C699.559 777.581 706.658 777.63 714.091 777.682C729.164 777.788 745.606 777.902 755.638 774.23C757.951 773.384 760.576 772.531 763.255 771.66C767.877 770.158 772.659 768.604 776.276 766.941C780.934 764.799 782.984 761.523 785.039 758.24C786.431 756.015 787.826 753.787 790.034 751.907C816.864 729.07 848.284 723.692 893.948 722.75C899.339 722.638 908.438 721.561 913.862 720.586C941.892 715.547 972.201 717.965 1002.51 720.382C1026.06 722.26 1049.6 724.138 1072.09 722.522C1083.07 721.732 1094.02 720.778 1104.97 719.824C1118.48 718.646 1132 717.469 1145.59 716.599C1150.62 716.277 1156.07 716.157 1161.66 716.033C1175.98 715.717 1191.28 715.379 1203.16 711.588C1206 710.681 1208.9 709.741 1211.86 708.783C1236.12 700.935 1264.02 691.906 1290.41 690.062C1293.28 689.861 1296.1 689.777 1298.91 689.693C1302.81 689.576 1306.69 689.46 1310.69 689.037C1351.84 684.679 1375.92 666.411 1401.59 646.937C1403.5 645.486 1405.42 644.027 1407.36 642.567C1409.33 641.087 1411.31 639.151 1413.41 637.096C1419.43 631.212 1426.46 624.344 1437.05 624.344C1447.88 624.344 1457.52 622.464 1466.82 620.647C1481.58 617.769 1495.5 615.052 1512 620.244V0.25ZM1512 944.659H0V944.666H1512V944.659Z" fill="white"/>
<path d="M39.7016 1974.39C29.5314 1981.19 24.7425 1986.69 0 1974.39V1990.39H1512.45V1761.18C1485.85 1752.71 1466.05 1765.28 1438.39 1765.28C1424.27 1765.28 1416.56 1777.79 1409.06 1783.5C1381.44 1804.55 1357.23 1825.29 1313.53 1829.97C1306.72 1830.7 1300.26 1830.52 1293.5 1831C1264.24 1833.07 1233.1 1844.18 1207.28 1852.53C1190.96 1857.8 1168.08 1856.39 1150.39 1857.54C1126.08 1859.11 1102.02 1861.69 1077.77 1863.46C1026.95 1867.16 970.634 1852.57 921.423 1861.52C916.063 1862.5 907.072 1863.58 901.745 1863.69C856.624 1864.63 825.578 1870.01 799.067 1892.84C793.664 1897.5 793.193 1904.29 785.472 1907.88C779.827 1910.51 771.306 1912.86 765.08 1915.17C750.279 1920.65 721.359 1917.69 703.902 1918.93C674.232 1921.03 641.721 1924.24 620.543 1939.66C574.62 1973.07 495.28 1962.09 432.538 1962.09C406.581 1962.09 380.235 1959.2 363.668 1974.39C349.939 1986.98 330.871 1983.86 307.106 1974.39C291.028 1967.99 248.449 1965.15 221.249 1974.39C194.048 1983.63 153.103 1964.29 118.922 1974.39C84.7401 1984.5 49.8717 1967.59 39.7016 1974.39Z" fill="white"/>
<g clip-path="url(#clip1_1102_162)">
<path d="M1540.39 648.526C1532.52 689.214 1493.26 715.748 1452.57 707.88C1411.89 700.013 1385.35 660.755 1393.22 620.068C1401.09 579.381 1440.35 552.846 1481.03 560.714C1521.72 568.582 1548.25 607.839 1540.39 648.526ZM1427.85 626.764C1423.66 648.406 1437.63 669.068 1459.27 673.253C1480.91 677.438 1501.57 663.472 1505.76 641.83C1509.94 620.188 1495.98 599.527 1474.34 595.342C1452.69 591.157 1432.03 605.122 1427.85 626.764Z" fill="#DDDDDD" fill-opacity="0.2"/>
<path d="M1444.83 713.118C1436.96 753.805 1397.7 780.34 1357.01 772.472C1316.33 764.604 1289.79 725.347 1297.66 684.66C1305.53 643.973 1344.79 617.438 1385.47 625.306C1426.16 633.174 1452.69 672.431 1444.83 713.118ZM1332.29 691.356C1328.1 712.998 1342.07 733.66 1363.71 737.845C1385.35 742.03 1406.01 728.064 1410.2 706.422C1414.38 684.78 1400.42 664.118 1378.78 659.933C1357.13 655.748 1336.47 669.714 1332.29 691.356Z" stroke="#DDDDDD" stroke-opacity="0.3" stroke-width="2" stroke-miterlimit="10"/>
</g>
<g filter="url(#filter0_f_1102_162)">
<circle cx="427.552" cy="1074.64" r="203.552" fill="#2E07F5" fill-opacity="0.6"/>
</g>
<g filter="url(#filter1_f_1102_162)">
<circle cx="1037.6" cy="1080.58" r="209.494" fill="#32A86B" fill-opacity="0.6"/>
</g>
<g filter="url(#filter2_f_1102_162)">
<circle cx="390.595" cy="1585.67" r="166.595" fill="#FCA822" fill-opacity="0.6"/>
</g>
<g filter="url(#filter3_f_1102_162)">
<circle cx="960.567" cy="1625.45" r="175.172" transform="rotate(-11.4159 960.567 1625.45)" fill="#FE784D" fill-opacity="0.6"/>
</g>
<g clip-path="url(#clip2_1102_162)">
<path d="M163.857 1795.75C183.707 1814.71 184.418 1846.12 165.447 1865.96L93.5041 1797.22C112.596 1777.49 144.006 1776.78 163.857 1795.75Z" fill="#DDDDDD" fill-opacity="0.1"/>
<path d="M162.171 1809.67C182.021 1828.64 182.732 1860.04 163.761 1879.89L91.8181 1811.15C110.792 1791.42 142.32 1790.7 162.171 1809.67Z" stroke="#DDDDDD" stroke-opacity="0.3" stroke-width="2" stroke-miterlimit="10" stroke-linecap="round" stroke-linejoin="round"/>
</g>
</g>
<defs>
<filter id="filter0_f_1102_162" x="-378" y="269.086" width="1611.1" height="1611.1" filterUnits="userSpaceOnUse" color-interpolation-filters="sRGB">
<feFlood flood-opacity="0" result="BackgroundImageFix"/>
<feBlend mode="normal" in="SourceGraphic" in2="BackgroundImageFix" result="shape"/>
<feGaussianBlur stdDeviation="301" result="effect1_foregroundBlur_1102_162"/>
</filter>
<filter id="filter1_f_1102_162" x="226.104" y="269.086" width="1622.99" height="1622.99" filterUnits="userSpaceOnUse" color-interpolation-filters="sRGB">
<feFlood flood-opacity="0" result="BackgroundImageFix"/>
<feBlend mode="normal" in="SourceGraphic" in2="BackgroundImageFix" result="shape"/>
<feGaussianBlur stdDeviation="301" result="effect1_foregroundBlur_1102_162"/>
</filter>
<filter id="filter2_f_1102_162" x="-378" y="817.074" width="1537.19" height="1537.19" filterUnits="userSpaceOnUse" color-interpolation-filters="sRGB">
<feFlood flood-opacity="0" result="BackgroundImageFix"/>
<feBlend mode="normal" in="SourceGraphic" in2="BackgroundImageFix" result="shape"/>
<feGaussianBlur stdDeviation="301" result="effect1_foregroundBlur_1102_162"/>
</filter>
<filter id="filter3_f_1102_162" x="183.361" y="848.247" width="1554.41" height="1554.41" filterUnits="userSpaceOnUse" color-interpolation-filters="sRGB">
<feFlood flood-opacity="0" result="BackgroundImageFix"/>
<feBlend mode="normal" in="SourceGraphic" in2="BackgroundImageFix" result="shape"/>
<feGaussianBlur stdDeviation="301" result="effect1_foregroundBlur_1102_162"/>
</filter>
<clipPath id="clip0_1102_162">
<rect width="1512" height="1990" fill="white" transform="translate(0 0.25)"/>
</clipPath>
<clipPath id="clip1_1102_162">
<rect width="238.064" height="238.064" fill="white" transform="translate(1278.27 761.734) rotate(-79.0556)"/>
</clipPath>
<clipPath id="clip2_1102_162">
<rect width="88.254" height="100" fill="white" transform="translate(90 1782.84) rotate(-1.29749)"/>
</clipPath>
</defs>
</svg>
