<svg width="48" height="48" viewBox="0 0 48 48" fill="none" xmlns="http://www.w3.org/2000/svg">
<path d="M20.8343 2C15.4079 2 10.9115 6.08885 10.3684 11.3225C10.3445 11.5275 10.3621 11.7351 10.4201 11.9334C10.4781 12.1316 10.5754 12.3165 10.7062 12.4773C10.8371 12.6381 10.9989 12.7717 11.1824 12.8702C11.3659 12.9688 11.5673 13.0304 11.7751 13.0515C11.9829 13.0726 12.1928 13.0527 12.3927 12.9931C12.5927 12.9334 12.7786 12.8352 12.9399 12.704C13.1011 12.5728 13.2343 12.4114 13.3319 12.2289C13.4295 12.0465 13.4895 11.8467 13.5083 11.6413C13.889 7.97311 17.006 5.11833 20.8343 5.11833C22.2524 5.11833 23.5632 5.50989 24.6833 6.19026C24.8599 6.29762 25.0562 6.36956 25.261 6.40196C25.4658 6.43436 25.675 6.4266 25.8767 6.37911C26.0784 6.33162 26.2687 6.24533 26.4367 6.12518C26.6047 6.00502 26.747 5.85336 26.8557 5.67884C26.9643 5.50432 27.0371 5.31037 27.0698 5.10807C27.1026 4.90576 27.0947 4.69906 27.0466 4.49977C26.9985 4.30049 26.9111 4.11252 26.7894 3.9466C26.6678 3.78068 26.5142 3.64006 26.3375 3.53277C24.7368 2.56043 22.8441 2 20.8343 2ZM28.9679 7.25813C28.7076 7.26569 28.4532 7.33678 28.2274 7.46505C28.0016 7.59333 27.8115 7.7748 27.674 7.99329C27.5364 8.21179 27.4558 8.46051 27.4391 8.71728C27.4225 8.97405 27.4705 9.2309 27.5787 9.46492C27.9777 10.36 28.1993 11.3481 28.1993 12.3944C28.1993 16.4308 24.92 19.6706 20.8343 19.6706C18.7913 19.6706 16.9612 18.8578 15.627 17.5389C15.4816 17.3892 15.3074 17.2698 15.1147 17.1875C14.9219 17.1052 14.7145 17.0617 14.5045 17.0596C14.2946 17.0575 14.0863 17.0968 13.8919 17.1752C13.6975 17.2536 13.5209 17.3695 13.3724 17.5162C13.2239 17.6629 13.1065 17.8374 13.0272 18.0294C12.9478 18.2215 12.908 18.4273 12.9102 18.6347C12.9123 18.8421 12.9563 19.047 13.0396 19.2375C13.1229 19.4279 13.2439 19.6 13.3953 19.7436C15.2975 21.6241 17.9386 22.7889 20.8343 22.7889C26.6262 22.7889 31.3558 18.1164 31.3558 12.3944C31.3558 10.9108 31.0392 9.48976 30.468 8.20824C30.3439 7.91903 30.1343 7.67358 29.8667 7.50404C29.599 7.33451 29.2857 7.24879 28.9679 7.25813ZM35.5828 25.0058C30.9529 25.0058 27.1657 28.7473 27.1657 33.3214C27.1657 35.0393 27.8253 36.5502 28.7377 37.8791L23.2345 43.3159C23.0831 43.4596 22.9621 43.6316 22.8788 43.8221C22.7955 44.0125 22.7515 44.2174 22.7494 44.4248C22.7473 44.6323 22.787 44.838 22.8664 45.0301C22.9458 45.2221 23.0631 45.3966 23.2116 45.5433C23.3601 45.69 23.5367 45.8059 23.7311 45.8843C23.9255 45.9627 24.1338 46.002 24.3437 45.9999C24.5537 45.9978 24.7611 45.9543 24.9539 45.872C25.1466 45.7897 25.3208 45.6703 25.4662 45.5206L30.9694 40.0839C32.3147 40.9856 33.8436 41.6369 35.5828 41.6369C40.2128 41.6369 44 37.8955 44 33.3214C44 28.7473 40.2128 25.0058 35.5828 25.0058ZM9.7868 26.9467C6.60956 26.9467 4 29.5247 4 32.6636C4 36.1257 6.05523 38.8885 8.87234 40.632C11.6894 42.3756 15.2937 43.2894 19.0013 43.5209C19.2094 43.5362 19.4185 43.5104 19.6165 43.4453C19.8145 43.3802 19.9975 43.2769 20.1548 43.1414C20.3122 43.0059 20.4407 42.841 20.5331 42.6561C20.6255 42.4712 20.6799 42.2701 20.693 42.0643C20.7062 41.8586 20.678 41.6523 20.6099 41.4573C20.5419 41.2624 20.4353 41.0828 20.2966 40.9288C20.1578 40.7749 19.9894 40.6496 19.8013 40.5603C19.6132 40.471 19.409 40.4195 19.2006 40.4087C15.8998 40.2026 12.7411 39.3474 10.5492 37.9908C8.3573 36.6342 7.15643 34.9652 7.15643 32.6636C7.15643 31.2102 8.31566 30.065 9.7868 30.065H24.4161C24.6253 30.0679 24.8329 30.0297 25.027 29.9527C25.221 29.8757 25.3977 29.7613 25.5466 29.6162C25.6955 29.4711 25.8138 29.2983 25.8945 29.1076C25.9753 28.917 26.0168 28.7125 26.0168 28.5058C26.0168 28.2992 25.9753 28.0946 25.8945 27.904C25.8138 27.7134 25.6955 27.5405 25.5466 27.3955C25.3977 27.2504 25.221 27.136 25.027 27.059C24.8329 26.9819 24.6253 26.9437 24.4161 26.9467H9.7868ZM35.5828 28.1242C38.507 28.1242 40.8436 30.4326 40.8436 33.3214C40.8436 36.2102 38.507 38.5186 35.5828 38.5186C34.1703 38.5186 32.9114 37.9618 31.9702 37.0792C31.9132 37.0126 31.8507 36.9508 31.7832 36.8945C30.8886 35.9644 30.3221 34.718 30.3221 33.3214C30.3221 30.4326 32.6587 28.1242 35.5828 28.1242Z" fill="#16ABFF"/>
</svg>
