<svg width="115" height="121" viewBox="0 0 115 121" fill="none" xmlns="http://www.w3.org/2000/svg">
<path d="M70.9487 36.1523C67.546 36.1523 64.7773 38.921 64.7773 42.3237V63.6439C64.7773 67.0455 67.5439 69.8125 70.9454 69.8142C70.9224 71.3531 70.7186 73.1781 68.8689 75.0278C68.7085 75.1883 68.6603 75.4294 68.7473 75.6392C68.8337 75.8485 69.0389 75.9855 69.2656 75.9855C72.5022 75.9855 78.2492 75.1737 80.8445 69.8142H101.244C104.647 69.8142 107.416 67.0455 107.416 63.6428V42.3237C107.416 38.921 104.647 36.1523 101.244 36.1523H70.9487ZM70.9487 37.2744H101.244C104.029 37.2744 106.294 39.5398 106.294 42.3237V63.6428C106.294 66.4267 104.029 68.6921 101.244 68.6921H80.4862C80.264 68.6921 80.0637 68.8232 79.9734 69.0252C78.0042 73.4557 73.6303 74.5986 70.5334 74.8185C72.0706 72.7567 72.0707 70.7645 72.0707 69.2531C72.0707 68.9434 71.82 68.6921 71.5097 68.6921H70.9487C68.1643 68.6921 65.8994 66.4278 65.8994 63.6439V42.3237C65.8994 39.5398 68.1643 37.2744 70.9487 37.2744ZM70.6682 38.9575C68.9671 38.9575 67.5825 40.3416 67.5825 42.0432V63.3623C67.5825 63.5172 67.7082 63.6428 67.863 63.6428C68.0179 63.6428 68.1435 63.5172 68.1435 63.3623V42.0432C68.1435 40.6512 69.2762 39.5185 70.6682 39.5185H101.525C102.917 39.5185 104.049 40.6512 104.049 42.0432V63.9233C104.049 65.3153 102.917 66.448 101.525 66.448H86.377H85.2549C85.1001 66.448 84.9744 66.5737 84.9744 66.7285C84.9744 66.8833 85.1001 67.009 85.2549 67.009H86.377H101.525C103.226 67.009 104.61 65.6249 104.61 63.9233V42.0432C104.61 40.3416 103.226 38.9575 101.525 38.9575H70.6682ZM81.8888 66.448C81.7339 66.448 81.6083 66.5737 81.6083 66.7285C81.6083 66.8833 81.7339 67.009 81.8888 67.009H83.5719C83.7267 67.009 83.8524 66.8833 83.8524 66.7285C83.8524 66.5737 83.7267 66.448 83.5719 66.448H81.8888Z" fill="#0DB6CC"/>
<path d="M39.3501 86.8991C31.5416 86.8991 25.2087 80.5662 25.2087 72.7576C25.2087 64.9491 31.5416 58.6162 39.3501 58.6162C47.1587 58.6162 53.4915 64.9491 53.4915 72.7576C53.4915 80.5662 47.1587 86.8991 39.3501 86.8991ZM39.3501 62.3053C33.5706 62.3053 28.8978 66.9781 28.8978 72.7576C28.8978 78.5372 33.5706 83.21 39.3501 83.21C45.1297 83.21 49.8025 78.5372 49.8025 72.7576C49.8025 66.9781 45.1297 62.3053 39.3501 62.3053ZM16.5394 108.788C16.232 108.788 15.9246 108.726 15.6171 108.542C14.7563 108.05 14.4489 106.943 14.9408 106.021C19.921 97.2899 29.2667 91.8178 39.3501 91.8178C49.4336 91.8178 58.7792 97.2899 63.7595 106.021C64.2513 106.881 63.9439 108.05 63.0831 108.542C62.2223 109.033 61.0541 108.726 60.5623 107.865C56.1969 100.241 48.0809 95.5069 39.3501 95.5069C30.6193 95.5069 22.5034 100.241 18.138 107.865C17.8306 108.419 17.2157 108.788 16.5394 108.788Z" fill="#8D8EBC"/>
<path d="M37.0336 3.0625C49.6836 3.0625 60.082 11.8944 60.082 22.9401C60.082 29.3506 56.512 34.9951 51.1061 38.612C51.1145 38.827 51.098 39.1783 51.3809 40.2191C51.7315 41.5085 52.4398 43.3184 53.8802 45.3463C53.9785 45.4848 54.0367 45.6475 54.0484 45.8166C54.0601 45.9856 54.0249 46.1547 53.9466 46.3053C53.8682 46.4559 53.7498 46.5823 53.6042 46.6708C53.4585 46.7593 53.2912 46.8065 53.1204 46.8073C46.9111 46.8341 43.3171 42.7929 42.7584 42.1418C40.9201 42.5479 39.0154 42.8177 37.0336 42.8177C24.3845 42.8177 13.9851 33.9859 13.9851 22.9401C13.9851 11.8944 24.3845 3.0625 37.0336 3.0625ZM37.0336 4.91702C25.2568 4.91702 15.8541 13.0547 15.8541 22.9401C15.8541 32.8255 25.2568 40.9632 37.0336 40.9632C39.0459 40.9632 40.9905 40.7248 42.833 40.2795C43.0056 40.2375 43.1867 40.2453 43.355 40.3019C43.5233 40.3585 43.6718 40.4615 43.7832 40.5989C43.7832 40.5989 46.6884 43.8701 51.3201 44.643C50.4827 43.1521 49.8645 41.7607 49.5767 40.7022C49.1757 39.2269 49.1703 38.2262 49.1703 38.2262C49.1703 38.07 49.2101 37.9163 49.2859 37.7794C49.3618 37.6425 49.4713 37.5268 49.6042 37.4431C54.8582 34.1384 58.213 28.8679 58.213 22.9401C58.213 13.0546 48.8114 4.91702 37.0336 4.91702ZM48.0906 15.9584C48.2238 15.9565 48.356 15.981 48.4796 16.0302C48.6032 16.0795 48.7157 16.1527 48.8106 16.2455C48.9054 16.3383 48.9808 16.4489 49.0322 16.5708C49.0836 16.6928 49.1101 16.8236 49.1101 16.9558C49.1101 17.088 49.0836 17.2188 49.0322 17.3408C48.9808 17.4627 48.9054 17.5733 48.8106 17.6661C48.7157 17.7589 48.6032 17.8321 48.4796 17.8813C48.356 17.9306 48.2238 17.955 48.0906 17.9532H25.9766C25.8434 17.955 25.7112 17.9306 25.5876 17.8813C25.464 17.8321 25.3515 17.7589 25.2566 17.6661C25.1617 17.5733 25.0864 17.4627 25.035 17.3408C24.9836 17.2188 24.9571 17.088 24.9571 16.9558C24.9571 16.8236 24.9836 16.6928 25.035 16.5708C25.0864 16.4489 25.1617 16.3383 25.2566 16.2455C25.3515 16.1527 25.464 16.0795 25.5876 16.0302C25.7112 15.981 25.8434 15.9565 25.9766 15.9584H48.0906ZM52.1113 21.9427C52.2445 21.9409 52.3767 21.9653 52.5003 22.0146C52.6239 22.0638 52.7364 22.137 52.8313 22.2298C52.9261 22.3226 53.0015 22.4332 53.0529 22.5551C53.1043 22.6771 53.1308 22.8079 53.1308 22.9401C53.1308 23.0723 53.1043 23.2032 53.0529 23.3251C53.0015 23.447 52.9261 23.5576 52.8313 23.6504C52.7364 23.7432 52.6239 23.8164 52.5003 23.8657C52.3767 23.915 52.2445 23.9394 52.1113 23.9375H35.0232C34.89 23.9394 34.7578 23.915 34.6342 23.8657C34.5106 23.8164 34.3981 23.7432 34.3032 23.6504C34.2084 23.5576 34.133 23.447 34.0816 23.3251C34.0302 23.2032 34.0037 23.0723 34.0037 22.9401C34.0037 22.8079 34.0302 22.6771 34.0816 22.5551C34.133 22.4332 34.2084 22.3226 34.3032 22.2298C34.3981 22.137 34.5106 22.0638 34.6342 22.0146C34.7578 21.9653 34.89 21.9409 35.0232 21.9427H52.1113ZM28.9922 21.9427C29.1253 21.9409 29.2576 21.9653 29.3812 22.0146C29.5048 22.0638 29.6173 22.137 29.7122 22.2298C29.807 22.3226 29.8823 22.4332 29.9338 22.5551C29.9852 22.6771 30.0116 22.8079 30.0116 22.9401C30.0116 23.0723 29.9852 23.2032 29.9338 23.3251C29.8823 23.447 29.807 23.5576 29.7122 23.6504C29.6173 23.7432 29.5048 23.8164 29.3812 23.8657C29.2576 23.915 29.1253 23.9394 28.9922 23.9375H21.9559C21.8227 23.9394 21.6905 23.915 21.5668 23.8657C21.4432 23.8164 21.3307 23.7432 21.2359 23.6504C21.141 23.5576 21.0657 23.447 21.0143 23.3251C20.9629 23.2032 20.9364 23.0723 20.9364 22.9401C20.9364 22.8079 20.9629 22.6771 21.0143 22.5551C21.0657 22.4332 21.141 22.3226 21.2359 22.2298C21.3307 22.137 21.4432 22.0638 21.5668 22.0146C21.6905 21.9653 21.8227 21.9409 21.9559 21.9427H28.9922ZM48.0906 27.9271C48.2238 27.9252 48.356 27.9496 48.4796 27.9989C48.6032 28.0482 48.7157 28.1213 48.8106 28.2141C48.9054 28.3069 48.9808 28.4175 49.0322 28.5395C49.0836 28.6614 49.1101 28.7923 49.1101 28.9244C49.1101 29.0566 49.0836 29.1875 49.0322 29.3094C48.9808 29.4314 48.9054 29.5419 48.8106 29.6347C48.7157 29.7275 48.6032 29.8007 48.4796 29.85C48.356 29.8993 48.2238 29.9237 48.0906 29.9218H25.9766C25.8434 29.9237 25.7112 29.8993 25.5876 29.85C25.464 29.8007 25.3515 29.7275 25.2566 29.6347C25.1617 29.5419 25.0864 29.4314 25.035 29.3094C24.9836 29.1875 24.9571 29.0566 24.9571 28.9244C24.9571 28.7923 24.9836 28.6614 25.035 28.5395C25.0864 28.4175 25.1617 28.3069 25.2566 28.2141C25.3515 28.1213 25.464 28.0482 25.5876 27.9989C25.7112 27.9496 25.8434 27.9252 25.9766 27.9271H48.0906Z" fill="#A2BC8D"/>
</svg>
