<svg width="1512" height="1403" viewBox="0 0 1512 1403" fill="none" xmlns="http://www.w3.org/2000/svg">
<rect width="1512" height="1402" fill="white"/>
<path d="M1512 1402.03H703.07H0V193.074C0 193.074 241.841 154.749 703.07 222.19C1164.3 289.63 1512 180.159 1512 180.159V534.082V736.061V1402.03Z" fill="#373656"/>
<g opacity="0.3" clip-path="url(#clip0_1162_41)">
<path d="M158.587 1144.67L152.012 1135.61L141.288 1138.81" stroke="#DDDDDD" stroke-opacity="0.5" stroke-width="2" stroke-miterlimit="10" stroke-linecap="round" stroke-linejoin="round"/>
<path d="M158.587 1144.67L152.012 1135.61L141.288 1138.81" stroke="#DDDDDD" stroke-opacity="0.2" stroke-width="2" stroke-miterlimit="10" stroke-linecap="round" stroke-linejoin="round"/>
<path d="M193.144 1156.39L186.568 1147.34L175.855 1150.51L169.31 1141.46" stroke="#DDDDDD" stroke-opacity="0.5" stroke-width="2" stroke-miterlimit="10" stroke-linecap="round" stroke-linejoin="round"/>
<path d="M193.144 1156.39L186.568 1147.34L175.855 1150.51L169.31 1141.46" stroke="#DDDDDD" stroke-opacity="0.2" stroke-width="2" stroke-miterlimit="10" stroke-linecap="round" stroke-linejoin="round"/>
<path d="M210.412 1162.24L203.867 1153.19" stroke="#DDDDDD" stroke-opacity="0.5" stroke-width="2" stroke-miterlimit="10" stroke-linecap="round" stroke-linejoin="round"/>
<path d="M210.412 1162.24L203.867 1153.19" stroke="#DDDDDD" stroke-opacity="0.2" stroke-width="2" stroke-miterlimit="10" stroke-linecap="round" stroke-linejoin="round"/>
<path d="M167.443 1146.98L156.72 1150.19L150.144 1141.13L139.421 1144.33" stroke="#DDDDDD" stroke-opacity="0.5" stroke-width="2" stroke-miterlimit="10" stroke-linecap="round" stroke-linejoin="round"/>
<path d="M167.443 1146.98L156.72 1150.19L150.144 1141.13L139.421 1144.33" stroke="#DDDDDD" stroke-opacity="0.2" stroke-width="2" stroke-miterlimit="10" stroke-linecap="round" stroke-linejoin="round"/>
<path d="M208.545 1167.75L201.97 1158.7L191.276 1161.91L184.701 1152.86L173.988 1156.03" stroke="#DDDDDD" stroke-opacity="0.5" stroke-width="2" stroke-miterlimit="10" stroke-linecap="round" stroke-linejoin="round"/>
<path d="M208.545 1167.75L201.97 1158.7L191.276 1161.91L184.701 1152.86L173.988 1156.03" stroke="#DDDDDD" stroke-opacity="0.2" stroke-width="2" stroke-miterlimit="10" stroke-linecap="round" stroke-linejoin="round"/>
</g>
<g opacity="0.3" clip-path="url(#clip1_1162_41)">
<path d="M230.565 734.868L241.598 732.985L243.476 721.952" stroke="#DDDDDD" stroke-opacity="0.5" stroke-width="2" stroke-miterlimit="10" stroke-linecap="round" stroke-linejoin="round"/>
<path d="M230.565 734.868L241.598 732.985L243.476 721.952" stroke="#DDDDDD" stroke-opacity="0.2" stroke-width="2" stroke-miterlimit="10" stroke-linecap="round" stroke-linejoin="round"/>
<path d="M204.744 760.655L215.776 758.772L217.677 747.762L228.687 745.901" stroke="#DDDDDD" stroke-opacity="0.5" stroke-width="2" stroke-miterlimit="10" stroke-linecap="round" stroke-linejoin="round"/>
<path d="M204.744 760.655L215.776 758.772L217.677 747.762L228.687 745.901" stroke="#DDDDDD" stroke-opacity="0.2" stroke-width="2" stroke-miterlimit="10" stroke-linecap="round" stroke-linejoin="round"/>
<path d="M191.856 773.549L202.866 771.688" stroke="#DDDDDD" stroke-opacity="0.5" stroke-width="2" stroke-miterlimit="10" stroke-linecap="round" stroke-linejoin="round"/>
<path d="M191.856 773.549L202.866 771.688" stroke="#DDDDDD" stroke-opacity="0.2" stroke-width="2" stroke-miterlimit="10" stroke-linecap="round" stroke-linejoin="round"/>
<path d="M224.568 741.784L226.446 730.751L237.479 728.868L239.357 717.835" stroke="#DDDDDD" stroke-opacity="0.5" stroke-width="2" stroke-miterlimit="10" stroke-linecap="round" stroke-linejoin="round"/>
<path d="M224.568 741.784L226.446 730.751L237.479 728.868L239.357 717.835" stroke="#DDDDDD" stroke-opacity="0.2" stroke-width="2" stroke-miterlimit="10" stroke-linecap="round" stroke-linejoin="round"/>
<path d="M187.737 769.431L198.769 767.547L200.625 756.537L211.657 754.654L213.558 743.644" stroke="#DDDDDD" stroke-opacity="0.5" stroke-width="2" stroke-miterlimit="10" stroke-linecap="round" stroke-linejoin="round"/>
<path d="M187.737 769.431L198.769 767.547L200.625 756.537L211.657 754.654L213.558 743.644" stroke="#DDDDDD" stroke-opacity="0.2" stroke-width="2" stroke-miterlimit="10" stroke-linecap="round" stroke-linejoin="round"/>
</g>
<g opacity="0.3" clip-path="url(#clip2_1162_41)">
<path d="M63.585 386.668L57.0096 377.611L46.2861 380.815" stroke="#DDDDDD" stroke-opacity="0.5" stroke-width="2" stroke-miterlimit="10" stroke-linecap="round" stroke-linejoin="round"/>
<path d="M63.585 386.668L57.0096 377.611L46.2861 380.815" stroke="#DDDDDD" stroke-opacity="0.2" stroke-width="2" stroke-miterlimit="10" stroke-linecap="round" stroke-linejoin="round"/>
<path d="M98.1416 398.395L91.5662 389.338L80.8531 392.511L74.3082 383.465" stroke="#DDDDDD" stroke-opacity="0.5" stroke-width="2" stroke-miterlimit="10" stroke-linecap="round" stroke-linejoin="round"/>
<path d="M98.1416 398.395L91.5662 389.338L80.8531 392.511L74.3082 383.465" stroke="#DDDDDD" stroke-opacity="0.2" stroke-width="2" stroke-miterlimit="10" stroke-linecap="round" stroke-linejoin="round"/>
<path d="M115.41 404.237L108.865 395.191" stroke="#DDDDDD" stroke-opacity="0.5" stroke-width="2" stroke-miterlimit="10" stroke-linecap="round" stroke-linejoin="round"/>
<path d="M115.41 404.237L108.865 395.191" stroke="#DDDDDD" stroke-opacity="0.2" stroke-width="2" stroke-miterlimit="10" stroke-linecap="round" stroke-linejoin="round"/>
<path d="M72.4413 388.982L61.7177 392.186L55.1424 383.129L44.4189 386.333" stroke="#DDDDDD" stroke-opacity="0.5" stroke-width="2" stroke-miterlimit="10" stroke-linecap="round" stroke-linejoin="round"/>
<path d="M72.4413 388.982L61.7177 392.186L55.1424 383.129L44.4189 386.333" stroke="#DDDDDD" stroke-opacity="0.2" stroke-width="2" stroke-miterlimit="10" stroke-linecap="round" stroke-linejoin="round"/>
<path d="M113.543 409.755L106.968 400.698L96.2745 403.912L89.6992 394.856L78.986 398.028" stroke="#DDDDDD" stroke-opacity="0.5" stroke-width="2" stroke-miterlimit="10" stroke-linecap="round" stroke-linejoin="round"/>
<path d="M113.543 409.755L106.968 400.698L96.2745 403.912L89.6992 394.856L78.986 398.028" stroke="#DDDDDD" stroke-opacity="0.2" stroke-width="2" stroke-miterlimit="10" stroke-linecap="round" stroke-linejoin="round"/>
</g>
<path d="M769.873 766.885C766.47 766.885 763.701 769.653 763.701 773.056V794.376C763.701 797.778 766.468 800.545 769.869 800.547C769.846 802.085 769.642 803.911 767.793 805.76C767.632 805.921 767.584 806.162 767.671 806.372C767.758 806.581 767.963 806.718 768.189 806.718C771.426 806.718 777.173 805.906 779.768 800.547H800.168C803.571 800.547 806.339 797.778 806.339 794.375V773.056C806.339 769.653 803.571 766.885 800.168 766.885H769.873ZM769.873 768.007H800.168C802.953 768.007 805.217 770.272 805.217 773.056V794.375C805.217 797.159 802.953 799.425 800.168 799.425H779.41C779.188 799.425 778.988 799.556 778.897 799.758C776.928 804.188 772.554 805.331 769.457 805.551C770.994 803.489 770.995 801.497 770.995 799.986C770.995 799.676 770.744 799.425 770.434 799.425H769.873C767.088 799.425 764.823 797.16 764.823 794.376V773.056C764.823 770.272 767.088 768.007 769.873 768.007ZM769.592 769.69C767.891 769.69 766.506 771.074 766.506 772.776V794.095C766.506 794.25 766.632 794.375 766.787 794.375C766.942 794.375 767.067 794.25 767.067 794.095V772.776C767.067 771.384 768.2 770.251 769.592 770.251H800.449C801.841 770.251 802.973 771.384 802.973 772.776V794.656C802.973 796.048 801.841 797.18 800.449 797.18H785.301H784.179C784.024 797.18 783.898 797.306 783.898 797.461C783.898 797.616 784.024 797.741 784.179 797.741H785.301H800.449C802.15 797.741 803.534 796.357 803.534 794.656V772.776C803.534 771.074 802.15 769.69 800.449 769.69H769.592ZM780.813 797.18C780.658 797.18 780.532 797.306 780.532 797.461C780.532 797.616 780.658 797.741 780.813 797.741H782.496C782.651 797.741 782.776 797.616 782.776 797.461C782.776 797.306 782.651 797.18 782.496 797.18H780.813Z" fill="#0DB6CC"/>
<path d="M738.274 817.631C730.465 817.631 724.133 811.299 724.133 803.49C724.133 795.682 730.465 789.349 738.274 789.349C746.082 789.349 752.415 795.682 752.415 803.49C752.415 811.299 746.082 817.631 738.274 817.631ZM738.274 793.038C732.494 793.038 727.822 797.711 727.822 803.49C727.822 809.27 732.494 813.942 738.274 813.942C744.053 813.942 748.726 809.27 748.726 803.49C748.726 797.711 744.053 793.038 738.274 793.038ZM715.463 839.52C715.156 839.52 714.848 839.458 714.541 839.274C713.68 838.782 713.373 837.675 713.865 836.753C718.845 828.022 728.191 822.55 738.274 822.55C748.357 822.55 757.703 828.022 762.683 836.753C763.175 837.614 762.868 838.782 762.007 839.274C761.146 839.766 759.978 839.458 759.486 838.598C755.121 830.974 747.005 826.239 738.274 826.239C729.543 826.239 721.427 830.974 717.062 838.598C716.754 839.151 716.14 839.52 715.463 839.52Z" fill="#8D8EBC"/>
<path d="M735.957 733.795C748.607 733.795 759.006 742.627 759.006 753.673C759.006 760.083 755.436 765.728 750.03 769.344C750.038 769.559 750.022 769.911 750.305 770.951C750.655 772.241 751.364 774.051 752.804 776.079C752.902 776.217 752.961 776.38 752.972 776.549C752.984 776.718 752.949 776.887 752.87 777.038C752.792 777.188 752.674 777.315 752.528 777.403C752.382 777.492 752.215 777.539 752.044 777.54C745.835 777.567 742.241 773.525 741.682 772.874C739.844 773.28 737.939 773.55 735.957 773.55C723.308 773.55 712.909 764.718 712.909 753.673C712.909 742.627 723.308 733.795 735.957 733.795ZM735.957 735.649C724.181 735.649 714.778 743.787 714.778 753.673C714.778 763.558 724.181 771.696 735.957 771.696C737.97 771.696 739.914 771.457 741.757 771.012C741.929 770.97 742.111 770.978 742.279 771.034C742.447 771.091 742.596 771.194 742.707 771.331C742.707 771.331 745.612 774.603 750.244 775.375C749.407 773.884 748.788 772.493 748.501 771.435C748.099 769.959 748.094 768.959 748.094 768.959C748.094 768.802 748.134 768.649 748.21 768.512C748.286 768.375 748.395 768.259 748.528 768.176C753.782 764.871 757.137 759.6 757.137 753.673C757.137 743.787 747.735 735.649 735.957 735.649ZM747.014 746.691C747.148 746.689 747.28 746.713 747.403 746.763C747.527 746.812 747.64 746.885 747.734 746.978C747.829 747.071 747.905 747.181 747.956 747.303C748.007 747.425 748.034 747.556 748.034 747.688C748.034 747.82 748.007 747.951 747.956 748.073C747.905 748.195 747.829 748.306 747.734 748.399C747.64 748.491 747.527 748.564 747.403 748.614C747.28 748.663 747.148 748.687 747.014 748.686H724.9C724.767 748.687 724.635 748.663 724.511 748.614C724.388 748.564 724.275 748.491 724.18 748.399C724.086 748.306 724.01 748.195 723.959 748.073C723.907 747.951 723.881 747.82 723.881 747.688C723.881 747.556 723.907 747.425 723.959 747.303C724.01 747.181 724.086 747.071 724.18 746.978C724.275 746.885 724.388 746.812 724.511 746.763C724.635 746.713 724.767 746.689 724.9 746.691H747.014ZM751.035 752.675C751.168 752.673 751.301 752.698 751.424 752.747C751.548 752.796 751.66 752.869 751.755 752.962C751.85 753.055 751.925 753.166 751.977 753.288C752.028 753.409 752.055 753.54 752.055 753.673C752.055 753.805 752.028 753.936 751.977 754.058C751.925 754.179 751.85 754.29 751.755 754.383C751.66 754.476 751.548 754.549 751.424 754.598C751.301 754.647 751.168 754.672 751.035 754.67H733.947C733.814 754.672 733.682 754.647 733.558 754.598C733.434 754.549 733.322 754.476 733.227 754.383C733.132 754.29 733.057 754.179 733.005 754.058C732.954 753.936 732.928 753.805 732.928 753.673C732.928 753.54 732.954 753.409 733.005 753.288C733.057 753.166 733.132 753.055 733.227 752.962C733.322 752.869 733.434 752.796 733.558 752.747C733.682 752.698 733.814 752.673 733.947 752.675H751.035ZM727.916 752.675C728.049 752.673 728.181 752.698 728.305 752.747C728.429 752.796 728.541 752.869 728.636 752.962C728.731 753.055 728.806 753.166 728.858 753.288C728.909 753.409 728.935 753.54 728.935 753.673C728.935 753.805 728.909 753.936 728.858 754.058C728.806 754.179 728.731 754.29 728.636 754.383C728.541 754.476 728.429 754.549 728.305 754.598C728.181 754.647 728.049 754.672 727.916 754.67H720.88C720.747 754.672 720.614 754.647 720.491 754.598C720.367 754.549 720.255 754.476 720.16 754.383C720.065 754.29 719.99 754.179 719.938 754.058C719.887 753.936 719.86 753.805 719.86 753.673C719.86 753.54 719.887 753.409 719.938 753.288C719.99 753.166 720.065 753.055 720.16 752.962C720.255 752.869 720.367 752.796 720.491 752.747C720.614 752.698 720.747 752.673 720.88 752.675H727.916ZM747.014 758.659C747.148 758.658 747.28 758.682 747.403 758.731C747.527 758.781 747.64 758.854 747.734 758.947C747.829 759.039 747.905 759.15 747.956 759.272C748.007 759.394 748.034 759.525 748.034 759.657C748.034 759.789 748.007 759.92 747.956 760.042C747.905 760.164 747.829 760.274 747.734 760.367C747.64 760.46 747.527 760.533 747.403 760.582C747.28 760.632 747.148 760.656 747.014 760.654H724.9C724.767 760.656 724.635 760.632 724.511 760.582C724.388 760.533 724.275 760.46 724.18 760.367C724.086 760.274 724.01 760.164 723.959 760.042C723.907 759.92 723.881 759.789 723.881 759.657C723.881 759.525 723.907 759.394 723.959 759.272C724.01 759.15 724.086 759.039 724.18 758.947C724.275 758.854 724.388 758.781 724.511 758.731C724.635 758.682 724.767 758.658 724.9 758.659H747.014Z" fill="#A2BC8D"/>
<g opacity="0.3" clip-path="url(#clip3_1162_41)">
<path d="M786.983 1331.32L800.749 1341.07L814.515 1331.32" stroke="#DDDDDD" stroke-opacity="0.5" stroke-width="2" stroke-miterlimit="10" stroke-linecap="round" stroke-linejoin="round"/>
<path d="M786.983 1331.32L800.749 1341.07L814.515 1331.32" stroke="#DDDDDD" stroke-opacity="0.2" stroke-width="2" stroke-miterlimit="10" stroke-linecap="round" stroke-linejoin="round"/>
<path d="M731.968 1331.27L745.734 1341.02L759.5 1331.32L773.217 1341.07" stroke="#DDDDDD" stroke-opacity="0.5" stroke-width="2" stroke-miterlimit="10" stroke-linecap="round" stroke-linejoin="round"/>
<path d="M731.968 1331.27L745.734 1341.02L759.5 1331.32L773.217 1341.07" stroke="#DDDDDD" stroke-opacity="0.2" stroke-width="2" stroke-miterlimit="10" stroke-linecap="round" stroke-linejoin="round"/>
<path d="M704.484 1331.27L718.202 1341.02" stroke="#DDDDDD" stroke-opacity="0.5" stroke-width="2" stroke-miterlimit="10" stroke-linecap="round" stroke-linejoin="round"/>
<path d="M704.484 1331.27L718.202 1341.02" stroke="#DDDDDD" stroke-opacity="0.2" stroke-width="2" stroke-miterlimit="10" stroke-linecap="round" stroke-linejoin="round"/>
<path d="M773.218 1332.29L786.984 1322.54L800.75 1332.29L814.516 1322.54" stroke="#DDDDDD" stroke-opacity="0.5" stroke-width="2" stroke-miterlimit="10" stroke-linecap="round" stroke-linejoin="round"/>
<path d="M773.218 1332.29L786.984 1322.54L800.75 1332.29L814.516 1322.54" stroke="#DDDDDD" stroke-opacity="0.2" stroke-width="2" stroke-miterlimit="10" stroke-linecap="round" stroke-linejoin="round"/>
<path d="M704.484 1322.49L718.25 1332.24L731.968 1322.49L745.734 1332.24L759.5 1322.54" stroke="#DDDDDD" stroke-opacity="0.5" stroke-width="2" stroke-miterlimit="10" stroke-linecap="round" stroke-linejoin="round"/>
<path d="M704.484 1322.49L718.25 1332.24L731.968 1322.49L745.734 1332.24L759.5 1322.54" stroke="#DDDDDD" stroke-opacity="0.2" stroke-width="2" stroke-miterlimit="10" stroke-linecap="round" stroke-linejoin="round"/>
</g>
<g opacity="0.3" clip-path="url(#clip4_1162_41)">
<path d="M1306.71 857.61L1295.79 860.053L1294.48 871.168" stroke="#DDDDDD" stroke-opacity="0.5" stroke-width="2" stroke-miterlimit="10" stroke-linecap="round" stroke-linejoin="round"/>
<path d="M1306.71 857.61L1295.79 860.053L1294.48 871.168" stroke="#DDDDDD" stroke-opacity="0.2" stroke-width="2" stroke-miterlimit="10" stroke-linecap="round" stroke-linejoin="round"/>
<path d="M1331.19 830.542L1320.26 832.985L1318.93 844.077L1308.03 846.496" stroke="#DDDDDD" stroke-opacity="0.5" stroke-width="2" stroke-miterlimit="10" stroke-linecap="round" stroke-linejoin="round"/>
<path d="M1331.19 830.542L1320.26 832.985L1318.93 844.077L1308.03 846.496" stroke="#DDDDDD" stroke-opacity="0.2" stroke-width="2" stroke-miterlimit="10" stroke-linecap="round" stroke-linejoin="round"/>
<path d="M1343.4 817.009L1332.5 819.428" stroke="#DDDDDD" stroke-opacity="0.5" stroke-width="2" stroke-miterlimit="10" stroke-linecap="round" stroke-linejoin="round"/>
<path d="M1343.4 817.009L1332.5 819.428" stroke="#DDDDDD" stroke-opacity="0.2" stroke-width="2" stroke-miterlimit="10" stroke-linecap="round" stroke-linejoin="round"/>
<path d="M1312.35 850.399L1311.03 861.513L1300.11 863.956L1298.8 875.07" stroke="#DDDDDD" stroke-opacity="0.5" stroke-width="2" stroke-miterlimit="10" stroke-linecap="round" stroke-linejoin="round"/>
<path d="M1312.35 850.399L1311.03 861.513L1300.11 863.956L1298.8 875.07" stroke="#DDDDDD" stroke-opacity="0.2" stroke-width="2" stroke-miterlimit="10" stroke-linecap="round" stroke-linejoin="round"/>
<path d="M1347.72 820.91L1336.8 823.353L1335.51 834.443L1324.59 836.886L1323.25 847.979" stroke="#DDDDDD" stroke-opacity="0.5" stroke-width="2" stroke-miterlimit="10" stroke-linecap="round" stroke-linejoin="round"/>
<path d="M1347.72 820.91L1336.8 823.353L1335.51 834.443L1324.59 836.886L1323.25 847.979" stroke="#DDDDDD" stroke-opacity="0.2" stroke-width="2" stroke-miterlimit="10" stroke-linecap="round" stroke-linejoin="round"/>
</g>
<g opacity="0.3" clip-path="url(#clip5_1162_41)">
<path d="M757.711 357.61L746.789 360.053L745.475 371.168" stroke="#DDDDDD" stroke-opacity="0.5" stroke-width="2" stroke-miterlimit="10" stroke-linecap="round" stroke-linejoin="round"/>
<path d="M757.711 357.61L746.789 360.053L745.475 371.168" stroke="#DDDDDD" stroke-opacity="0.2" stroke-width="2" stroke-miterlimit="10" stroke-linecap="round" stroke-linejoin="round"/>
<path d="M782.186 330.542L771.264 332.985L769.926 344.077L759.025 346.496" stroke="#DDDDDD" stroke-opacity="0.5" stroke-width="2" stroke-miterlimit="10" stroke-linecap="round" stroke-linejoin="round"/>
<path d="M782.186 330.542L771.264 332.985L769.926 344.077L759.025 346.496" stroke="#DDDDDD" stroke-opacity="0.2" stroke-width="2" stroke-miterlimit="10" stroke-linecap="round" stroke-linejoin="round"/>
<path d="M794.399 317.009L783.499 319.428" stroke="#DDDDDD" stroke-opacity="0.5" stroke-width="2" stroke-miterlimit="10" stroke-linecap="round" stroke-linejoin="round"/>
<path d="M794.399 317.009L783.499 319.428" stroke="#DDDDDD" stroke-opacity="0.2" stroke-width="2" stroke-miterlimit="10" stroke-linecap="round" stroke-linejoin="round"/>
<path d="M763.348 350.399L762.034 361.513L751.113 363.956L749.799 375.07" stroke="#DDDDDD" stroke-opacity="0.5" stroke-width="2" stroke-miterlimit="10" stroke-linecap="round" stroke-linejoin="round"/>
<path d="M763.348 350.399L762.034 361.513L751.113 363.956L749.799 375.07" stroke="#DDDDDD" stroke-opacity="0.2" stroke-width="2" stroke-miterlimit="10" stroke-linecap="round" stroke-linejoin="round"/>
<path d="M798.723 320.91L787.801 323.353L786.508 334.443L775.587 336.886L774.249 347.979" stroke="#DDDDDD" stroke-opacity="0.5" stroke-width="2" stroke-miterlimit="10" stroke-linecap="round" stroke-linejoin="round"/>
<path d="M798.723 320.91L787.801 323.353L786.508 334.443L775.587 336.886L774.249 347.979" stroke="#DDDDDD" stroke-opacity="0.2" stroke-width="2" stroke-miterlimit="10" stroke-linecap="round" stroke-linejoin="round"/>
</g>
<circle cx="1347.91" cy="199.734" r="93.8438" fill="#FFCA00"/>
<defs>
<clipPath id="clip0_1162_41">
<rect width="73.6277" height="13.2663" fill="white" transform="translate(208.746 1168.16) rotate(-161.307)"/>
</clipPath>
<clipPath id="clip1_1162_41">
<rect width="73.6277" height="13.2663" fill="white" transform="translate(187.281 769.43) rotate(-45.0129)"/>
</clipPath>
<clipPath id="clip2_1162_41">
<rect width="73.6277" height="13.2663" fill="white" transform="translate(113.744 410.164) rotate(-161.307)"/>
</clipPath>
<clipPath id="clip3_1162_41">
<rect width="111" height="20" fill="white" transform="translate(704 1322)"/>
</clipPath>
<clipPath id="clip4_1162_41">
<rect width="73.6277" height="13.2663" fill="white" transform="translate(1348.18 820.889) rotate(132.067)"/>
</clipPath>
<clipPath id="clip5_1162_41">
<rect width="73.6277" height="13.2663" fill="white" transform="translate(799.179 320.889) rotate(132.067)"/>
</clipPath>
</defs>
</svg>
