<svg width="154" height="154" viewBox="0 0 154 154" fill="none" xmlns="http://www.w3.org/2000/svg">
<g filter="url(#filter0_b_1318_352)">
<rect width="154" height="154" rx="6" fill="#D4D4D4" fill-opacity="0.1"/>
<path d="M45.7975 16.958L40.6053 19.9532L40.6001 19.9506V98.0156L108.2 137.044L113.397 134.044L113.4 55.984L45.7975 16.958Z" fill="#FF5757"/>
<path d="M113.4 55.984L45.7975 16.958L40.6001 19.9584L108.2 58.987L113.4 55.984Z" fill="#E64E4E"/>
<path d="M48.3999 33.4678V93.5122L100.4 123.534V63.49L48.3999 33.4678ZM53.5999 90.5092V42.4742L95.1999 66.493L95.2051 114.538L53.5999 90.5092Z" fill="#CCCCCC"/>
<path d="M61.3999 55.9844V86.0066L87.3999 101.016V70.9968L61.3999 55.9844ZM82.1999 92.01L66.5999 83.0036V64.9908L82.1999 73.9972V92.01Z" fill="#CCCCCC"/>
<path d="M77 77V83.0034L45.8 101.019V95.0128L77 77Z" fill="#737373"/>
<path d="M77.0001 77.0001L71.8001 73.9971L40.6001 92.0099L45.8001 95.0129L77.0001 77.0001Z" fill="#A8A8A8"/>
<path d="M40.6001 92.0098V98.0158L45.8001 101.019V95.0128L40.6001 92.0098Z" fill="#CCCCCC"/>
<path d="M108.2 58.9874V137.045L113.397 134.044L113.4 55.9844L108.2 58.9874Z" fill="#B33D3D"/>
</g>
<defs>
<filter id="filter0_b_1318_352" x="-74" y="-74" width="302" height="302" filterUnits="userSpaceOnUse" color-interpolation-filters="sRGB">
<feFlood flood-opacity="0" result="BackgroundImageFix"/>
<feGaussianBlur in="BackgroundImageFix" stdDeviation="37"/>
<feComposite in2="SourceAlpha" operator="in" result="effect1_backgroundBlur_1318_352"/>
<feBlend mode="normal" in="SourceGraphic" in2="effect1_backgroundBlur_1318_352" result="shape"/>
</filter>
</defs>
</svg>
