<svg width="20" height="20" viewBox="0 0 20 20" fill="none" xmlns="http://www.w3.org/2000/svg">
<path d="M9.56996 15.9434L6.41621 17.5888C5.40329 18.1171 4.21996 17.2701 4.39371 16.1409L4.95121 12.5171C4.99621 12.2246 4.89913 11.928 4.68996 11.7188L2.25288 9.28173C1.44538 8.47423 1.89788 7.09215 3.02663 6.9184L6.64371 6.36215C6.94163 6.31631 7.19871 6.12881 7.33371 5.85923L8.75329 3.01965C9.26704 1.99215 10.7333 1.99215 11.247 3.01965L12.6666 5.85923C12.8016 6.12881 13.0587 6.31631 13.3566 6.36215L16.9737 6.9184C18.102 7.09215 18.555 8.47465 17.7475 9.28173L15.3104 11.7188C15.1012 11.928 15.0041 12.2246 15.0491 12.5171L15.6066 16.1409C15.7804 17.2701 14.5966 18.1171 13.5841 17.5888L10.4304 15.9434C10.1604 15.803 9.83954 15.803 9.56996 15.9434Z" fill="url(#paint0_linear_1389_6)"/>
<path d="M15.6063 16.1413C15.78 17.2705 14.5963 18.1176 13.5838 17.5892L10.43 15.9438C10.1609 15.8034 9.83962 15.8034 9.57045 15.9438L6.4167 17.5892C5.40378 18.1176 4.22045 17.2705 4.3942 16.1413L4.9517 12.5176C4.9967 12.2251 4.89962 11.9284 4.69045 11.7192L2.25337 9.28215C1.44587 8.47465 1.89837 7.09257 3.02712 6.91882L4.84212 6.63965" stroke="#FAC400" stroke-linecap="round" stroke-linejoin="round"/>
<path d="M7.33325 5.85923L8.75284 3.01965C9.26659 1.99215 10.7328 1.99215 11.2466 3.01965L12.6662 5.85923C12.8012 6.12881 13.0583 6.31632 13.3562 6.36215L16.9733 6.9184C18.1016 7.09215 18.5545 8.47465 17.747 9.28173L15.3099 11.7188C15.1008 11.928 15.0037 12.2246 15.0487 12.5171L15.2133 13.5855" stroke="#FAC400" stroke-linecap="round" stroke-linejoin="round"/>
<defs>
<linearGradient id="paint0_linear_1389_6" x1="15.7483" y1="5.3084" x2="4.25163" y2="16.8051" gradientUnits="userSpaceOnUse">
<stop stop-color="#FEE460"/>
<stop offset="0.033" stop-color="#FEE66A"/>
<stop offset="0.197" stop-color="#FEED97"/>
<stop offset="0.362" stop-color="#FFF4BD"/>
<stop offset="0.525" stop-color="#FFF9DA"/>
<stop offset="0.687" stop-color="#FFFCEE"/>
<stop offset="0.846" stop-color="#FFFEFB"/>
<stop offset="1" stop-color="white"/>
</linearGradient>
</defs>
</svg>
