<svg width="48" height="48" viewBox="0 0 48 48" fill="none" xmlns="http://www.w3.org/2000/svg">
<path d="M24.0002 0C14.5165 0 6.72021 6.97125 6.72021 15.66C6.72021 20.2425 9.63396 24.0825 12.3902 27.3C13.7665 28.9087 15.1352 30.375 16.1102 31.65C17.0852 32.925 17.6102 33.9937 17.6102 34.65V35.97C17.4115 35.9737 16.3202 36 16.3202 36C15.7915 36 15.3602 36.4312 15.3602 36.96V41.76C15.3602 43.0762 16.4477 44.16 17.7602 44.16H19.5902C19.9015 46.32 21.754 48 24.0002 48C26.2465 48 28.099 46.32 28.4102 44.16H30.2402C31.5527 44.16 32.6402 43.0762 32.6402 41.76C32.6402 41.76 32.6627 40.6275 32.6702 39.45C32.674 38.8612 32.674 38.2687 32.6702 37.8C32.6702 37.5675 32.674 37.3575 32.6702 37.2C32.6665 37.1212 32.644 37.0575 32.6402 36.99C32.6365 36.9225 32.6665 36.9337 32.5802 36.66C32.5802 36.66 32.4715 36.3787 32.4002 36.3C32.329 36.2212 32.2427 36.1837 32.1902 36.15C32.089 36.0825 32.029 36.0487 31.9802 36.03C31.8827 35.9962 31.8452 36.0075 31.8002 36C31.714 35.985 31.6652 35.9775 31.5902 35.97C31.444 35.9587 31.2415 35.9475 31.0202 35.94C30.8702 35.9362 30.604 35.9437 30.4202 35.94V34.68C30.4202 34.0162 30.9452 32.9437 31.9202 31.68C32.8952 30.4162 34.234 28.9612 35.6102 27.36C38.359 24.1575 41.2802 20.31 41.2802 15.66C41.2802 6.97125 33.484 0 24.0002 0ZM24.0002 1.92C32.5502 1.92 39.3602 8.1225 39.3602 15.66C39.3602 19.4887 36.8515 22.98 34.1702 26.1C32.8315 27.66 31.4515 29.13 30.3902 30.51C29.329 31.89 28.5002 33.2025 28.5002 34.68V35.91C27.3302 35.9062 25.9915 35.9025 24.5702 35.91C26.1077 33.2212 26.824 29.6025 26.8802 25.8C27.4465 26.0287 28.0502 26.13 28.6802 26.07C30.0565 25.9425 31.4627 25.3387 32.5202 24.21C33.3115 23.3625 33.694 22.0987 33.7502 20.58C33.8065 19.0612 33.499 17.265 32.7002 15.42C31.1065 11.7337 27.4615 7.87875 20.6702 5.76C20.5465 5.715 20.4115 5.6925 20.2802 5.7C19.7965 5.745 19.4215 6.14625 19.4102 6.63C19.3352 8.26125 18.2515 10.1775 17.1602 12.57C16.069 14.9625 15.0527 17.8687 15.5702 21.51C16.0502 24.9 18.694 26.5725 21.1502 26.85C22.3765 26.9887 23.584 26.82 24.6002 26.43C24.7277 26.3812 24.8402 26.31 24.9602 26.25C24.8252 30.1837 23.8652 33.8062 22.2602 35.94C20.9627 35.955 20.434 35.9587 19.5302 35.97V34.65C19.5302 33.1762 18.7052 31.8675 17.6402 30.48C16.5752 29.0925 15.2065 27.6112 13.8602 26.04C11.1715 22.9012 8.64021 19.4062 8.64021 15.66C8.64021 8.1225 15.4502 1.92 24.0002 1.92ZM21.0002 7.98C26.6777 10.0013 29.6327 13.1737 30.9302 16.17C31.6165 17.7525 31.8752 19.275 31.8302 20.49C31.7852 21.705 31.3952 22.6162 31.1402 22.89C30.4465 23.6287 29.4002 24.0975 28.5002 24.18C27.694 24.255 27.1277 24.0562 26.8502 23.73C26.644 19.6575 25.6652 15.5212 23.7902 12.24C23.6065 11.8875 23.224 11.685 22.8302 11.73C22.5115 11.775 22.2377 11.9775 22.099 12.2662C21.9602 12.555 21.9752 12.8925 22.1402 13.17C23.8277 16.1212 24.7765 20.0513 24.9602 23.91C24.8252 24.1237 24.484 24.4387 23.9102 24.66C23.224 24.9225 22.279 25.035 21.3602 24.93C19.519 24.7237 17.824 23.805 17.4602 21.24C17.0102 18.0712 17.8652 15.615 18.9002 13.35C19.7402 11.5125 20.5877 9.8025 21.0002 7.98ZM23.9702 37.83C25.8827 37.8187 27.814 37.8187 29.2502 37.83C29.8802 37.8337 30.3527 37.8487 30.7502 37.86C30.754 38.3025 30.754 38.8575 30.7502 39.42C30.7427 40.59 30.7202 41.73 30.7202 41.73C30.7202 41.7412 30.7202 41.7487 30.7202 41.76C30.7202 42.0337 30.5027 42.24 30.2402 42.24H17.7602C17.4977 42.24 17.2802 42.0337 17.2802 41.76V37.92C18.0677 37.9087 20.6215 37.8525 23.9702 37.83ZM21.5402 44.16H26.4602C26.1827 45.2662 25.204 46.08 24.0002 46.08C22.7965 46.08 21.8177 45.2662 21.5402 44.16Z" fill="#FF9B27"/>
</svg>
