<svg width="48" height="48" viewBox="0 0 48 48" fill="none" xmlns="http://www.w3.org/2000/svg">
<rect x="47" y="1" width="46" height="46" rx="23" transform="rotate(90 47 1)" stroke="#666666" stroke-width="2"/>
<path d="M32 25C32.5523 25 33 24.5523 33 24C33 23.4477 32.5523 23 32 23H17.9142L22.7071 18.2071C23.0976 17.8166 23.0976 17.1834 22.7071 16.7929C22.3166 16.4024 21.6834 16.4024 21.2929 16.7929L15.5 22.5858C14.719 23.3668 14.719 24.6332 15.5 25.4142L21.2929 31.2071C21.6834 31.5976 22.3166 31.5976 22.7071 31.2071C23.0976 30.8166 23.0976 30.1834 22.7071 29.7929L17.9142 25H32Z" fill="#444444"/>
</svg>
