<svg width="120" height="120" viewBox="0 0 120 120" fill="none" xmlns="http://www.w3.org/2000/svg">
<path d="M69.6002 18.4297L7.2002 54.4585V62.7721L50.4002 87.7129L112.8 51.6865V43.3729L69.6002 18.4297Z" fill="#577BE6"/>
<path d="M50.4004 79.3994V87.713L112.8 51.6866V43.373L50.4004 79.3994Z" fill="#4460B3"/>
<path d="M7.2002 54.458V62.7716L50.4002 87.7124V79.3988L7.2002 54.458Z" fill="#6189FF"/>
<path d="M67.1996 25.3584L21.5996 51.6864L55.1996 71.0856L100.8 44.7576L67.1996 25.3584Z" fill="#66E1FF"/>
<path d="M31.2 71.0855V73.8575L24 69.6983V66.9287L31.2 71.0855Z" fill="#5274D9"/>
<path d="M26.4 68.3135L24 69.6983V66.9287L26.4 68.3135Z" fill="#4460B3"/>
<path d="M71.9996 47.5293L21.5996 76.6269V84.9405L52.7996 102.955L103.2 73.8573V65.5413L71.9996 47.5293Z" fill="#E68F3A"/>
<path d="M52.7998 94.642V102.956L103.2 73.858V65.542L52.7998 94.642Z" fill="#B36F2D"/>
<path d="M21.5996 76.627V84.9406L52.7996 102.955V94.6414L21.5996 76.627Z" fill="#FF9F40"/>
<path d="M72.0002 53.0713L31.2002 76.6273L52.8002 89.0977L93.6002 65.5417L72.0002 53.0713Z" fill="#66E1FF"/>
<path d="M40.8002 90.4844V93.254L31.2002 87.7124V84.9404L40.8002 90.4844Z" fill="#E68F3A"/>
<path d="M33.6002 86.3276L31.2002 87.7124V84.9404L33.6002 86.3276Z" fill="#B36F2D"/>
</svg>
