<svg width="50" height="50" viewBox="0 0 50 50" fill="none" xmlns="http://www.w3.org/2000/svg">
<path d="M45.8332 24.9796C45.8446 36.4848 36.5248 45.8212 25.0196 45.8327C13.5144 45.8442 4.17797 36.5244 4.16651 25.0191C4.15506 13.5139 13.4748 4.17748 24.9801 4.16603C36.4853 4.15457 45.8217 13.4744 45.8332 24.9796Z" fill="url(#paint0_linear_1320_368)"/>
<path opacity="0.05" d="M39.347 23.9246C39.347 16.4704 33.3783 10.8496 25.4616 10.8496C15.2876 10.8496 10.6543 17.9246 10.6543 24.4996C10.6543 27.7788 12.347 32.0538 15.4845 33.5152C15.9908 33.7517 16.4533 33.7694 16.8605 33.5725C17.1324 33.4413 17.4887 33.1527 17.6335 32.5361L18.2126 30.1725C18.3439 29.6215 18.2262 29.1163 17.8595 28.6704C17.2074 27.8788 16.546 26.2184 16.546 24.5767C16.546 20.6986 19.4772 16.5767 24.9105 16.5767C29.421 16.5767 32.571 19.634 32.571 24.0111C32.571 28.935 30.2543 32.509 27.0637 32.509C26.3533 32.509 25.7199 32.2236 25.3262 31.7257C24.9605 31.2632 24.8428 30.66 24.9918 30.0267C25.196 29.1663 25.4762 28.2621 25.746 27.3871C26.2605 25.7225 26.746 24.1506 26.746 22.8506C26.746 20.4725 25.2678 18.8756 23.0689 18.8756C20.371 18.8756 18.2585 21.5548 18.2585 24.9756C18.2585 26.4475 18.6158 27.5975 18.8314 28.159C18.4512 29.7673 16.8012 36.7517 16.4668 38.1871C16.0668 39.8954 16.147 42.1496 16.3126 43.9173C17.4522 44.4413 18.646 44.8611 19.8855 45.1746C20.6897 43.8423 21.9387 41.5923 22.4293 39.7069C22.5668 39.1777 22.9376 37.7631 23.248 36.5809C24.3918 37.4079 25.9408 37.9256 27.4939 37.9256C34.2522 37.9246 39.347 31.9059 39.347 23.9246Z" fill="black"/>
<path opacity="0.07" d="M38.8258 23.9253C38.8258 16.768 33.08 11.3711 25.4613 11.3711C15.6456 11.3711 11.1748 18.1763 11.1748 24.5003C11.1748 27.6628 12.8686 31.7232 15.705 33.044C15.8373 33.1065 16.2425 33.2951 16.6342 33.1055C16.8821 32.9846 17.0488 32.7523 17.1279 32.4159L17.7061 30.0534C17.7988 29.6638 17.7186 29.3201 17.4571 29.0034C16.6144 27.9805 16.0248 26.1607 16.0248 24.5784C16.0248 20.4482 19.1394 16.0576 24.9102 16.0576C29.7269 16.0576 33.0915 19.3284 33.0915 24.0128C33.0915 29.2388 30.5561 33.0315 27.0633 33.0315C26.1936 33.0315 25.4113 32.6742 24.9175 32.0503C24.4508 31.4607 24.2977 30.6992 24.4852 29.9076C24.6936 29.0305 24.9758 28.118 25.2488 27.2346C25.7508 25.6086 26.2258 24.0732 26.2258 22.8513C26.2258 20.7846 24.9571 19.3971 23.0696 19.3971C20.6644 19.3971 18.78 21.8482 18.78 24.9763C18.78 26.5315 19.1956 27.6898 19.3769 28.1201C19.0863 29.3492 17.3217 36.8159 16.9748 38.3065C16.5675 40.0513 16.6811 42.4148 16.8633 44.1826C17.6686 44.5242 18.5061 44.8013 19.3592 45.0409C20.1425 43.7565 21.4352 41.4628 21.9258 39.5773C22.0967 38.9211 22.6248 36.9076 22.9529 35.6586C24.0092 36.7096 25.7456 37.4065 27.4946 37.4065C33.955 37.4044 38.8258 31.6096 38.8258 23.9253Z" fill="black"/>
<path d="M25.4614 11.8926C16.4698 11.8926 11.6958 17.929 11.6958 24.4999C11.6958 27.5551 13.3229 31.3592 15.925 32.5707C16.3187 32.7551 16.5312 32.6749 16.6208 32.2926C16.6906 32.003 17.0406 30.5874 17.1989 29.9301C17.2489 29.7197 17.225 29.5395 17.0552 29.3332C16.1937 28.2884 15.5052 26.3676 15.5052 24.578C15.5052 19.9822 18.9843 15.5363 24.9114 15.5363C30.0291 15.5363 33.6125 19.0238 33.6125 24.0124C33.6125 29.6478 30.7666 33.552 27.0635 33.552C25.0187 33.552 23.4875 31.8613 23.9781 29.7863C24.5666 27.3103 25.7041 24.6384 25.7041 22.8509C25.7041 21.252 24.8468 19.9165 23.0687 19.9165C20.9781 19.9165 19.3 22.078 19.3 24.9759C19.3 26.8197 19.9229 28.0676 19.9229 28.0676C19.9229 28.0676 17.8583 36.7988 17.4802 38.4238C17.0614 40.2176 17.2239 42.7374 17.4062 44.3853C17.876 44.5697 18.3458 44.754 18.8323 44.9051C19.6833 43.5217 20.951 41.253 21.4218 39.4447C21.675 38.4686 22.7208 34.4915 22.7208 34.4915C23.4 35.7863 25.3843 36.8842 27.4948 36.8842C33.7781 36.8842 38.3052 31.1061 38.3052 23.9259C38.3052 17.0415 32.6895 11.8926 25.4614 11.8926Z" fill="white"/>
<defs>
<linearGradient id="paint0_linear_1320_368" x1="15.6321" y1="6.77228" x2="34.9884" y2="44.4327" gradientUnits="userSpaceOnUse">
<stop stop-color="#F22543"/>
<stop offset="0.422" stop-color="#EB2239"/>
<stop offset="1" stop-color="#E52030"/>
</linearGradient>
</defs>
</svg>
