<svg width="48" height="48" viewBox="0 0 48 48" fill="none" xmlns="http://www.w3.org/2000/svg">
<rect x="47" y="1" width="46" height="46" rx="23" transform="rotate(90 47 1)" stroke="#666666" stroke-width="2"/>
<path d="M16 23C15.4477 23 15 23.4477 15 24C15 24.5523 15.4477 25 16 25H30.0858L25.2929 29.7929C24.9024 30.1834 24.9024 30.8166 25.2929 31.2071C25.6834 31.5976 26.3166 31.5976 26.7071 31.2071L32.5 25.4142C33.281 24.6332 33.281 23.3668 32.5 22.5858L26.7071 16.7929C26.3166 16.4024 25.6834 16.4024 25.2929 16.7929C24.9024 17.1834 24.9024 17.8166 25.2929 18.2071L30.0858 23H16Z" fill="#444444"/>
</svg>
