<svg width="154" height="154" viewBox="0 0 154 154" fill="none" xmlns="http://www.w3.org/2000/svg">
<g filter="url(#filter0_b_1318_337)">
<rect width="154" height="154" rx="6" fill="#D4D4D4" fill-opacity="0.1"/>
<path d="M116 57.4849V132.542L108.2 137.034L38 96.5265V21.4645L45.8 16.9561L116 57.4849Z" fill="#66E1FF"/>
<path d="M108.2 61.9878L38 21.459V39.4718L108.2 80.0032V61.9878Z" fill="#6189FF"/>
<path d="M116 132.541L108.2 137.044V61.9872L116 57.4814V132.541Z" fill="#479DB3"/>
<path d="M116 57.4849L108.2 61.9881L38 21.4593L45.8 16.9561L116 57.4849Z" fill="#577BE6"/>
<path d="M74.4002 69.4942L43.2002 51.4814V93.513L74.4002 111.526V69.4942Z" fill="#5CCAE6"/>
<path d="M43.2002 30.4648V36.4708L48.4002 39.4712V33.4678L43.2002 30.4648Z" fill="#61FF7B"/>
<path d="M53.6001 36.4717V42.4751L58.8001 45.4781V39.4721L53.6001 36.4717Z" fill="#FFF957"/>
<path d="M64 42.4746V48.478L103 70.9966V64.9906L64 42.4746Z" fill="#E6E6E6"/>
<path d="M103 98.0155L79.6001 84.5059V90.5093L103 104.019V98.0155Z" fill="#5CCAE6"/>
<path d="M103 86.0067L79.6001 72.4971V78.5005L103 92.0127V86.0067Z" fill="#5CCAE6"/>
<path d="M103 110.025L79.6001 96.5156V102.519L103 116.029V110.025Z" fill="#5CCAE6"/>
<path d="M103 122.035L79.6001 108.522V114.528L103 128.038V122.035Z" fill="#5CCAE6"/>
<path d="M108.2 61.9872L116 57.4814V75.4942L108.2 80.0027V61.9872Z" fill="#4460B3"/>
</g>
<defs>
<filter id="filter0_b_1318_337" x="-74" y="-74" width="302" height="302" filterUnits="userSpaceOnUse" color-interpolation-filters="sRGB">
<feFlood flood-opacity="0" result="BackgroundImageFix"/>
<feGaussianBlur in="BackgroundImageFix" stdDeviation="37"/>
<feComposite in2="SourceAlpha" operator="in" result="effect1_backgroundBlur_1318_337"/>
<feBlend mode="normal" in="SourceGraphic" in2="effect1_backgroundBlur_1318_337" result="shape"/>
</filter>
</defs>
</svg>
