<svg width="100" height="100" viewBox="0 0 100 100" fill="none" xmlns="http://www.w3.org/2000/svg">
<g clip-path="url(#clip0_1162_348)">
<path d="M81.25 58.5938H36.7188V40.625C36.7188 39.2969 35.7031 38.2812 34.375 38.2812C33.0469 38.2812 32.0312 39.2969 32.0312 40.625V81.25C32.0312 82.5781 33.0469 83.5938 34.375 83.5938C35.7031 83.5938 36.7188 82.5781 36.7188 81.25V63.2812H81.25C82.5781 63.2812 83.5938 62.2656 83.5938 60.9375C83.5938 59.6094 82.5781 58.5938 81.25 58.5938Z" fill="#FF9C71"/>
<path d="M12.5 14.8438C13.7944 14.8438 14.8438 13.7944 14.8438 12.5C14.8438 11.2056 13.7944 10.1562 12.5 10.1562C11.2056 10.1562 10.1562 11.2056 10.1562 12.5C10.1562 13.7944 11.2056 14.8438 12.5 14.8438Z" fill="#444B54"/>
<path d="M20.3125 14.8438C21.6069 14.8438 22.6562 13.7944 22.6562 12.5C22.6562 11.2056 21.6069 10.1562 20.3125 10.1562C19.0181 10.1562 17.9688 11.2056 17.9688 12.5C17.9688 13.7944 19.0181 14.8438 20.3125 14.8438Z" fill="#444B54"/>
<path d="M28.125 14.8438C29.4194 14.8438 30.4688 13.7944 30.4688 12.5C30.4688 11.2056 29.4194 10.1562 28.125 10.1562C26.8306 10.1562 25.7812 11.2056 25.7812 12.5C25.7812 13.7944 26.8306 14.8438 28.125 14.8438Z" fill="#444B54"/>
<path d="M89.0625 99.2188H10.9375C5.3125 99.2188 0.78125 94.6875 0.78125 89.0625V32.8125C0.78125 31.4844 1.79687 30.4688 3.125 30.4688C4.45313 30.4688 5.46875 31.4844 5.46875 32.8125V89.0625C5.46875 92.1094 7.89062 94.5312 10.9375 94.5312H89.0625C92.1094 94.5312 94.5312 92.1094 94.5312 89.0625V10.9375C94.5312 7.89062 92.1094 5.46875 89.0625 5.46875H10.9375C7.89062 5.46875 5.46875 7.89062 5.46875 10.9375V19.5312H86.7188C88.0469 19.5312 89.0625 20.5469 89.0625 21.875C89.0625 23.2031 88.0469 24.2188 86.7188 24.2188H3.125C1.79687 24.2188 0.78125 23.2031 0.78125 21.875V10.9375C0.78125 5.3125 5.3125 0.78125 10.9375 0.78125H89.0625C94.6875 0.78125 99.2188 5.3125 99.2188 10.9375V89.0625C99.2188 94.6875 94.6875 99.2188 89.0625 99.2188Z" fill="#444B54"/>
<path d="M12.5 14.8438C11.1719 14.8438 10.1562 13.8281 10.1562 12.5C10.1562 11.1719 11.1719 10.1562 12.5 10.1562" fill="#444B54"/>
</g>
<defs>
<clipPath id="clip0_1162_348">
<rect width="100" height="100" fill="white"/>
</clipPath>
</defs>
</svg>
