<svg width="130" height="130" viewBox="0 0 130 130" fill="none" xmlns="http://www.w3.org/2000/svg">
<path d="M62.4006 99.5243L80.6006 31.9737L72.8006 27.4706L67.6006 30.4735L49.4006 98.0241L57.2006 102.527L62.4006 99.5243Z" fill="#66E1FF"/>
<path d="M83.2006 102.528L88.4006 111.534L119.601 93.5214L93.6006 48.4868L83.2006 54.4928L104.001 90.5184L83.2006 102.528Z" fill="#66E1FF"/>
<path d="M46.8008 27.4707L41.6008 18.4643L10.4008 36.4771L36.4008 81.5117L46.8008 75.5057L26.0008 39.4801L46.8008 27.4707Z" fill="#66E1FF"/>
<path d="M88.402 111.532L93.6011 108.53L88.4011 99.5236L83.202 102.525L88.402 111.532Z" fill="#52B4CC"/>
<path d="M62.4004 99.5243L57.2004 102.527L49.4004 98.0241L54.6004 95.0211L62.4004 99.5243Z" fill="#5CCAE6"/>
<path d="M72.8008 27.4708L67.6008 30.4738L49.4008 98.0244L54.6008 95.0214L72.8008 27.4708Z" fill="#479DB3"/>
<path d="M104.001 90.5183L109.2 87.5166L88.4002 51.4899L83.2011 54.4916L104.001 90.5183Z" fill="#52B4CC"/>
<path d="M36.4039 81.5124L41.603 78.5107L15.603 33.4774L10.4039 36.4791L36.4039 81.5124Z" fill="#52B4CC"/>
</svg>
