<svg width="220" height="46" viewBox="0 0 220 46" fill="none" xmlns="http://www.w3.org/2000/svg">
<path d="M98.2883 6C97.7546 6 97.2714 6.20913 96.9037 6.57692L93.9613 9.51923C93.2258 10.2548 93.2258 11.5385 93.9613 12.4615L104.115 22.6154L93.9613 32.7692C93.2258 33.6923 93.2258 34.976 93.9613 35.7115L96.9037 38.6538C97.8267 39.3894 99.1104 39.3894 99.846 38.6538L110 28.5L120.154 38.6538C121.077 39.3894 122.36 39.3894 123.096 38.6538L126.038 35.7115C126.774 34.7885 126.774 33.5048 126.038 32.7692L115.884 22.6154L126.038 12.4615C126.774 11.5385 126.774 10.2548 126.038 9.51923L123.096 6.57692C122.173 5.84135 120.889 5.84135 120.154 6.57692L110 16.7308L99.846 6.57692C99.3844 6.20913 98.8219 6 98.2883 6Z" fill="#C73434"/>
</svg>
