<svg width="49" height="48" viewBox="0 0 49 48" fill="none" xmlns="http://www.w3.org/2000/svg">
<path d="M24.2676 8.47461C19.4586 8.47461 15.5585 12.2429 15.5585 16.8892C15.5585 21.5356 19.4586 25.3039 24.2676 25.3039C29.0765 25.3039 32.9767 21.5356 32.9767 16.8892C32.9767 12.2429 29.0765 8.47461 24.2676 8.47461ZM24.2676 10.6697C27.827 10.6697 30.7047 13.4502 30.7047 16.8892C30.7047 20.3283 27.827 23.1088 24.2676 23.1088C20.7082 23.1088 17.8304 20.3283 17.8304 16.8892C17.8304 13.4502 20.7082 10.6697 24.2676 10.6697ZM13.0972 12.1696C9.08343 12.3891 5.90271 15.6819 5.90271 19.6331C5.90271 23.7673 9.38636 27.1331 13.6652 27.1331C15.0662 27.1331 16.4295 26.7671 17.6034 26.072C18.1335 25.7793 18.3228 25.0844 17.982 24.5722C17.6791 24.06 16.9598 23.877 16.4297 24.2063C15.5966 24.6819 14.612 24.938 13.6275 24.938C10.5982 24.938 8.13694 22.56 8.13694 19.6331C8.13694 16.8527 10.371 14.5476 13.2488 14.3647C13.8925 14.3281 14.3465 13.8162 14.3086 13.1943C14.2707 12.5723 13.7409 12.133 13.0972 12.1696ZM35.4002 12.1696C34.7944 12.133 34.226 12.5723 34.1881 13.1943C34.1502 13.8162 34.6049 14.3281 35.2486 14.3647C38.1264 14.5476 40.3605 16.8527 40.3605 19.6331C40.3605 22.56 37.8992 24.938 34.87 24.938C33.8855 24.938 32.9008 24.6819 32.0678 24.2063C31.5376 23.9136 30.8183 24.06 30.5154 24.5722C30.2125 25.0844 30.364 25.7793 30.8941 26.072C32.0679 26.7671 33.4691 27.1331 34.8323 27.1331C39.1489 27.0966 42.6324 23.7673 42.6324 19.6331C42.6324 15.7185 39.4519 12.4257 35.4002 12.1696ZM24.2676 28.3772C18.0576 28.3772 12.3023 31.6331 9.23519 36.8283C8.93226 37.377 9.1213 38.0354 9.68928 38.3281C9.87861 38.4379 10.0679 38.4746 10.2573 38.4746C10.6359 38.4746 11.0523 38.2917 11.2416 37.9258C13.8922 33.3892 18.8905 30.5723 24.3053 30.5723C29.6822 30.5723 34.6805 33.3892 37.369 37.9258C37.6719 38.438 38.3533 38.6208 38.9213 38.3281C39.4514 38.0354 39.6414 37.377 39.3384 36.8283C36.2334 31.6331 30.4776 28.3772 24.2676 28.3772ZM9.80392 29.8806C9.72804 29.8845 9.65112 29.8952 9.57539 29.9135C5.71309 30.9745 2.3812 33.499 0.412185 36.8283C0.10926 37.377 0.29844 38.0354 0.82856 38.3281C1.01789 38.4379 1.20722 38.4746 1.39655 38.4746C1.7752 38.4746 2.19158 38.2917 2.38091 37.9258C4.047 35.0722 6.88752 32.9138 10.1818 32.0357C10.7877 31.8894 11.1283 31.267 10.9769 30.6816C10.8443 30.1694 10.3351 29.8536 9.80392 29.8806ZM38.7312 29.8806C38.2001 29.8536 37.6908 30.1694 37.5583 30.6816C37.4068 31.267 37.7475 31.8894 38.3533 32.0357C41.6098 32.9138 44.4503 35.0722 46.1543 37.9258C46.3814 38.2917 46.76 38.4746 47.1386 38.4746C47.3279 38.4746 47.5173 38.4379 47.7066 38.3281C48.2367 38.0354 48.4259 37.377 48.123 36.8283C46.154 33.499 42.8221 30.9745 38.9598 29.9135C38.884 29.8952 38.8071 29.8845 38.7312 29.8806Z" fill="#20D485"/>
</svg>
