<svg width="130" height="130" viewBox="0 0 130 130" fill="none" xmlns="http://www.w3.org/2000/svg">
<path d="M33.7975 4.95801L28.6053 7.95321L28.6001 7.95061V86.0156L96.2001 125.044L101.397 122.044L101.4 43.984L33.7975 4.95801Z" fill="#FF5757"/>
<path d="M101.4 43.984L33.7975 4.95801L28.6001 7.95841L96.2001 46.987L101.4 43.984Z" fill="#E64E4E"/>
<path d="M36.3999 21.4678V81.5122L88.3999 111.534V51.49L36.3999 21.4678ZM41.5999 78.5092V30.4742L83.1999 54.493L83.2051 102.538L41.5999 78.5092Z" fill="#CCCCCC"/>
<path d="M49.3999 43.9844V74.0066L75.3999 89.0164V58.9968L49.3999 43.9844ZM70.1999 80.01L54.5999 71.0036V52.9908L70.1999 61.9972V80.01Z" fill="#CCCCCC"/>
<path d="M64.9998 65V71.0034L33.7998 89.0188V83.0128L64.9998 65Z" fill="#737373"/>
<path d="M65.0001 65.0001L59.8001 61.9971L28.6001 80.0099L33.8001 83.0129L65.0001 65.0001Z" fill="#A8A8A8"/>
<path d="M28.6001 80.0098V86.0158L33.8001 89.0188V83.0128L28.6001 80.0098Z" fill="#CCCCCC"/>
<path d="M96.2002 46.9874V125.045L101.398 122.044L101.4 43.9844L96.2002 46.9874Z" fill="#B33D3D"/>
</svg>
