<svg width="50" height="50" viewBox="0 0 50 50" fill="none" xmlns="http://www.w3.org/2000/svg">
<path d="M25.0002 5.20801C19.7511 5.20801 14.717 7.29319 11.0053 11.0049C7.29368 14.7165 5.2085 19.7506 5.2085 24.9997C5.2085 30.2487 7.29368 35.2828 11.0053 38.9945C14.717 42.7061 19.7511 44.7913 25.0002 44.7913C30.2492 44.7913 35.2833 42.7061 38.995 38.9945C42.7066 35.2828 44.7918 30.2487 44.7918 24.9997C44.7918 19.7506 42.7066 14.7165 38.995 11.0049C35.2833 7.29319 30.2492 5.20801 25.0002 5.20801Z" fill="#039BE5"/>
<path d="M27.679 30.2454H32.8009L33.6051 25.0423H27.678V22.1986C27.678 20.0371 28.3842 18.1204 30.4061 18.1204H33.6551V13.5798C33.0842 13.5027 31.877 13.334 29.5957 13.334C24.8322 13.334 22.0395 15.8496 22.0395 21.5809V25.0423H17.1426V30.2454H22.0395V44.5465C23.0092 44.6923 23.9915 44.7913 24.9999 44.7913C25.9113 44.7913 26.8009 44.7079 27.679 44.5892V30.2454Z" fill="white"/>
</svg>
