<svg width="50" height="50" viewBox="0 0 50 50" fill="none" xmlns="http://www.w3.org/2000/svg">
<path d="M35.4345 43.7393L14.6012 43.759C10.0179 43.7632 6.26475 40.0174 6.25954 35.434L6.23975 14.6007C6.23558 10.0174 9.98142 6.26426 14.5647 6.25905L35.3981 6.23926C39.9814 6.23509 43.7345 9.98093 43.7397 14.5643L43.7595 35.3976C43.7647 39.982 40.0179 43.7351 35.4345 43.7393Z" fill="url(#paint0_radial_1162_474)"/>
<path d="M35.4345 43.7393L14.6012 43.759C10.0179 43.7632 6.26475 40.0174 6.25954 35.434L6.23975 14.6007C6.23558 10.0174 9.98142 6.26426 14.5647 6.25905L35.3981 6.23926C39.9814 6.23509 43.7345 9.98093 43.7397 14.5643L43.7595 35.3976C43.7647 39.982 40.0179 43.7351 35.4345 43.7393Z" fill="url(#paint1_radial_1162_474)"/>
<path d="M25.0002 32.2913C20.9804 32.2913 17.7085 29.0205 17.7085 24.9997C17.7085 20.9788 20.9804 17.708 25.0002 17.708C29.02 17.708 32.2918 20.9788 32.2918 24.9997C32.2918 29.0205 29.02 32.2913 25.0002 32.2913ZM25.0002 19.7913C22.1283 19.7913 19.7918 22.1278 19.7918 24.9997C19.7918 27.8716 22.1283 30.208 25.0002 30.208C27.872 30.208 30.2085 27.8716 30.2085 24.9997C30.2085 22.1278 27.872 19.7913 25.0002 19.7913Z" fill="white"/>
<path d="M32.8125 18.75C33.6754 18.75 34.375 18.0504 34.375 17.1875C34.375 16.3246 33.6754 15.625 32.8125 15.625C31.9496 15.625 31.25 16.3246 31.25 17.1875C31.25 18.0504 31.9496 18.75 32.8125 18.75Z" fill="white"/>
<path d="M31.2502 38.5413H18.7502C14.7304 38.5413 11.4585 35.2705 11.4585 31.2497V18.7497C11.4585 14.7288 14.7304 11.458 18.7502 11.458H31.2502C35.27 11.458 38.5418 14.7288 38.5418 18.7497V31.2497C38.5418 35.2705 35.27 38.5413 31.2502 38.5413ZM18.7502 13.5413C15.8783 13.5413 13.5418 15.8778 13.5418 18.7497V31.2497C13.5418 34.1215 15.8783 36.458 18.7502 36.458H31.2502C34.122 36.458 36.4585 34.1215 36.4585 31.2497V18.7497C36.4585 15.8778 34.122 13.5413 31.2502 13.5413H18.7502Z" fill="white"/>
<defs>
<radialGradient id="paint0_radial_1162_474" cx="0" cy="0" r="1" gradientUnits="userSpaceOnUse" gradientTransform="translate(20.1877 43.7861) scale(46.7698 46.7698)">
<stop stop-color="#FFDD55"/>
<stop offset="0.328" stop-color="#FF543F"/>
<stop offset="0.348" stop-color="#FC5245"/>
<stop offset="0.504" stop-color="#E64771"/>
<stop offset="0.643" stop-color="#D53E91"/>
<stop offset="0.761" stop-color="#CC39A4"/>
<stop offset="0.841" stop-color="#C837AB"/>
</radialGradient>
<radialGradient id="paint1_radial_1162_474" cx="0" cy="0" r="1" gradientUnits="userSpaceOnUse" gradientTransform="translate(12.2772 5.77083) scale(31.0552 20.6921)">
<stop stop-color="#4168C9"/>
<stop offset="0.999" stop-color="#4168C9" stop-opacity="0"/>
</radialGradient>
</defs>
</svg>
