<svg width="49" height="48" viewBox="0 0 49 48" fill="none" xmlns="http://www.w3.org/2000/svg">
<path d="M0.832031 16.8244C0.832031 17.9841 1.5402 19.0238 2.60247 19.4236L7.87443 21.503V30.8203C7.87443 38.9779 16.9233 40.0176 24.7919 40.0176C32.6605 40.0176 41.7094 38.9779 41.7094 30.8203V23.0226C41.7094 22.1028 41.2766 21.2231 40.5291 20.7033C39.7816 20.1834 38.8374 20.0634 37.9718 20.3834L26.3263 24.942C25.3427 25.3419 24.2018 25.3419 23.2182 24.942L3.46801 17.1843C3.2713 17.1043 3.23195 16.9444 3.23195 16.8244C3.23195 16.7044 3.2713 16.5445 3.46801 16.4645L23.2575 8.74677C24.2411 8.34689 25.3821 8.34689 26.3656 8.74677L46.1552 16.4645C46.3912 16.5445 46.4699 16.7444 46.4699 16.8644C46.4699 16.9044 46.4699 16.9044 46.4699 16.9444V22.8226C46.4699 23.5024 46.9814 24.0223 47.6502 24.0223C48.319 24.0223 48.8305 23.5024 48.8305 22.8226V16.9444C48.8698 15.7447 48.1616 14.665 47.0207 14.2252L27.1918 6.46745C25.6575 5.86762 23.9264 5.86762 22.392 6.46745L2.60247 14.2252C1.5402 14.625 0.832031 15.6647 0.832031 16.8244ZM10.235 22.4228L22.392 27.1814C23.9264 27.7812 25.6575 27.7812 27.1918 27.1814L38.798 22.6627C38.9554 22.5827 39.1128 22.6627 39.1521 22.7027C39.2308 22.7427 39.3095 22.8626 39.3095 23.0226V30.8203C39.3095 35.5789 34.9424 37.6183 24.7526 37.6183C14.5627 37.6183 10.1957 35.5789 10.1957 30.8203V22.4228H10.235ZM47.6108 27.6212C46.942 27.6212 46.4306 28.1411 46.4306 28.8209V30.8203C46.4306 31.5001 46.942 32.0199 47.6108 32.0199C48.2797 32.0199 48.7911 31.5001 48.7911 30.8203V28.8209C48.7911 28.1411 48.2797 27.6212 47.6108 27.6212Z" fill="#2032D4"/>
</svg>
