<svg width="100" height="100" viewBox="0 0 100 100" fill="none" xmlns="http://www.w3.org/2000/svg">
<path d="M96.7188 26.0156L89.5312 18.8281L89.4531 18.75C89.4531 18.75 89.4531 18.75 89.375 18.6719L81.9531 11.25C81.9531 11.25 81.9531 11.25 81.9531 11.1719C81.875 11.0937 81.7969 11.0156 81.7187 10.9375L74.6875 3.90625C73.75 2.96875 72.2656 2.96875 71.4063 3.90625C70.4688 4.84375 70.4688 6.32812 71.4063 7.1875L76.3281 12.1094C74.2187 12.9687 71.0156 14.0625 67.2656 14.375C62.0312 14.8437 55.1563 13.6719 52.5781 13.2031C51.25 12.9687 50.3906 12.8125 49.5313 13.6719C49.2969 13.9062 49.0625 14.2187 48.9844 14.5312L37.4219 48.125C37.0313 49.375 37.6562 50.7031 38.9062 51.0938C39.1406 51.1719 39.4531 51.25 39.6875 51.25C40.625 51.25 41.5625 50.625 41.875 49.6875L52.8125 17.9687C56.0156 18.5156 62.5 19.5312 67.7344 19.0625C71.7969 18.6719 75.9375 17.5 79.9219 15.625L85.0781 20.7812C83.2812 24.2188 82.1875 27.8906 81.875 31.7969C81.3281 37.4219 82.3437 44.6094 82.8906 47.9688L41.7188 62.2656L64.2969 39.6875C65.2344 38.75 65.2344 37.2656 64.2969 36.4062C63.3594 35.4687 61.875 35.4687 61.0156 36.4062L31.1719 66.1719L31.0937 66.25C31.0156 66.3281 31.0156 66.4062 30.9375 66.4844C30.8594 66.5625 30.8594 66.6406 30.8594 66.6406C30.8594 66.7188 30.7813 66.7969 30.7813 66.875C30.7813 66.9531 30.7031 67.0313 30.7031 67.1094C30.7031 67.1875 30.625 67.2656 30.625 67.3437C30.625 67.4219 30.625 67.5 30.625 67.5781C30.625 67.6563 30.625 67.7344 30.625 67.8125C30.625 67.8906 30.625 67.9687 30.625 68.0469C30.625 68.125 30.625 68.2031 30.625 68.2813C30.625 68.3594 30.625 68.4375 30.7031 68.5156C30.7031 68.5937 30.7031 68.5938 30.7031 68.6719C30.7031 68.6719 30.7031 68.6719 30.7031 68.75C30.7031 68.8281 30.7813 68.8281 30.7813 68.9062C30.8594 68.9844 30.8594 69.0625 30.9375 69.1406C30.9375 69.2188 31.0156 69.2187 31.0156 69.2969C31.0938 69.375 31.1719 69.4531 31.25 69.5313C31.25 69.5313 31.25 69.5312 31.3281 69.6094C31.4062 69.6875 31.5625 69.7656 31.6406 69.8438C31.6406 69.8438 31.7187 69.8438 31.7187 69.9219C31.7969 70 31.875 70 31.9531 70.0781C32.0313 70.0781 32.0312 70.0781 32.1094 70.1563C32.1875 70.1563 32.2656 70.2344 32.4219 70.2344C32.5 70.2344 32.5 70.2344 32.5781 70.2344C32.7344 70.2344 32.8125 70.3125 32.9688 70.3125C33.125 70.3125 33.2812 70.3125 33.3594 70.2344C33.4375 70.2344 33.4375 70.2344 33.5156 70.2344C33.5938 70.2344 33.6719 70.2344 33.75 70.1563L86.25 51.9531C86.5625 51.875 86.875 51.6406 87.1094 51.4063C87.9688 50.5469 87.8906 49.7656 87.5781 48.2031C87.1094 45.3906 86.0156 37.9688 86.4844 32.4219C86.7188 29.6094 87.4219 26.9531 88.5156 24.4531L93.5156 29.4531C93.9844 29.9219 94.6094 30.1562 95.1563 30.1562C95.7031 30.1562 96.3281 29.9219 96.7969 29.4531C97.6562 28.4375 97.6563 26.9531 96.7188 26.0156Z" fill="#444B54"/>
<path d="M68.2031 34.8434C67.5781 34.8434 66.9531 34.609 66.5625 34.1403C66.0937 33.6715 65.8594 33.1247 65.8594 32.4997C65.8594 31.8747 66.0937 31.2497 66.5625 30.859C67.1094 30.3122 67.8906 30.0778 68.6719 30.234C68.8281 30.234 68.9844 30.3122 69.1406 30.3903C69.2969 30.4684 69.4531 30.5465 69.5312 30.6247C69.6875 30.7028 69.7656 30.7809 69.9219 30.9372C70 31.0153 70.1562 31.1715 70.2344 31.3278C70.3125 31.484 70.3906 31.5622 70.4687 31.7184C70.5469 31.8747 70.5469 32.0309 70.625 32.1872C70.625 32.3434 70.7031 32.4997 70.7031 32.6559C70.7031 33.2809 70.4687 33.9059 70 34.2965C69.9219 34.3747 69.7656 34.5309 69.6094 34.609C69.4531 34.6872 69.375 34.7653 69.2187 34.8434C69.0625 34.9215 68.9062 34.9215 68.75 34.9997C68.5937 35.0778 68.2813 34.8434 68.2031 34.8434Z" fill="#444B54"/>
<path d="M74.2188 78.125C69.4531 78.125 65.3906 81.4844 64.375 85.9375H58.5938C34.0625 85.9375 14.0625 65.9375 14.0625 41.4062V35.625C18.5156 34.5312 21.875 30.5469 21.875 25.7812C21.875 20.1563 17.3437 15.625 11.7188 15.625C6.09375 15.625 1.5625 20.1563 1.5625 25.7812C1.5625 30.5469 4.92188 34.6094 9.375 35.625V41.4062C9.375 68.5156 31.4844 90.625 58.5938 90.625H64.375C65.4688 95.0781 69.4531 98.4375 74.2188 98.4375C79.8437 98.4375 84.375 93.9062 84.375 88.2812C84.375 82.6563 79.8437 78.125 74.2188 78.125ZM6.25 25.7812C6.25 22.7344 8.67187 20.3125 11.7188 20.3125C14.7656 20.3125 17.1875 22.7344 17.1875 25.7812C17.1875 28.8281 14.7656 31.25 11.7188 31.25C8.67187 31.25 6.25 28.8281 6.25 25.7812ZM74.2188 93.75C71.1719 93.75 68.75 91.3281 68.75 88.2812C68.75 85.2344 71.1719 82.8125 74.2188 82.8125C77.2656 82.8125 79.6875 85.2344 79.6875 88.2812C79.6875 91.3281 77.2656 93.75 74.2188 93.75Z" fill="#FF9C71"/>
</svg>
