<svg width="54" height="54" viewBox="0 0 54 54" fill="none" xmlns="http://www.w3.org/2000/svg">
<path d="M14.8786 10C14.345 10 13.8618 10.2091 13.494 10.5769L10.5517 13.5192C9.81611 14.2548 9.81611 15.5385 10.5517 16.4615L20.7055 26.6154L10.5517 36.7692C9.81611 37.6923 9.81611 38.976 10.5517 39.7115L13.494 42.6538C14.4171 43.3894 15.7007 43.3894 16.4363 42.6538L26.5901 32.5L36.744 42.6538C37.6671 43.3894 38.9507 43.3894 39.6863 42.6538L42.6286 39.7115C43.3642 38.7885 43.3642 37.5048 42.6286 36.7692L32.4748 26.6154L42.6286 16.4615C43.3642 15.5385 43.3642 14.2548 42.6286 13.5192L39.6863 10.5769C38.7632 9.84135 37.4796 9.84135 36.744 10.5769L26.5901 20.7308L16.4363 10.5769C15.9748 10.2091 15.4123 10 14.8786 10Z" fill="#C73434"/>
</svg>
