<svg width="100" height="100" viewBox="0 0 100 100" fill="none" xmlns="http://www.w3.org/2000/svg">
<path d="M18.1255 99.2192C13.8286 99.2192 10.2348 96.1723 9.53171 91.9535L2.81296 51.641C0.859836 39.6098 6.95359 27.5004 17.7348 22.1098C18.5161 21.7192 19.2973 21.3285 20.1567 21.016L67.813 0.937919C68.9848 0.469169 70.3911 1.01604 70.8598 2.18792C71.3286 3.35979 70.7817 4.76604 69.6098 5.23479L21.9536 25.3129C21.2505 25.6254 20.4692 25.9379 19.7661 26.3285C10.7817 30.7817 5.70359 40.8598 7.42234 50.8598L14.1411 91.1723C14.4536 93.1254 16.0942 94.5317 18.1255 94.5317C20.313 94.5317 21.8755 92.7348 21.8755 90.5473V71.0942C21.8755 70.3129 22.5005 69.6098 23.2036 69.141C23.8286 68.6723 24.688 68.5942 25.3911 68.9067L32.0317 71.641C33.2036 72.1098 33.8286 73.516 33.3598 74.6879C32.8911 75.8598 31.4848 76.4848 30.313 76.016L26.563 74.6098V90.5473C26.563 95.3129 22.8911 99.2192 18.1255 99.2192Z" fill="#444B54"/>
<path d="M68.7504 82.0317C68.4379 82.0317 68.1254 81.9535 67.8129 81.8754L23.5942 63.2035C22.4223 62.7348 21.8754 61.3285 22.3442 60.1567C22.8129 58.9848 24.2192 58.4379 25.391 58.9067L69.6879 77.5004C70.8598 77.9692 71.4067 79.3754 70.9379 80.5473C70.5473 81.4848 69.6879 82.0317 68.7504 82.0317Z" fill="#444B54"/>
<path d="M96.875 44.5312H84.375C83.0469 44.5312 82.0312 43.5156 82.0312 42.1875C82.0312 40.8594 83.0469 39.8438 84.375 39.8438H96.875C98.2031 39.8438 99.2188 40.8594 99.2188 42.1875C99.2188 43.5156 98.2031 44.5312 96.875 44.5312Z" fill="#444B54"/>
<path d="M79.7656 33.5156C79.1406 33.5156 78.5938 33.2812 78.125 32.8125C77.1875 31.875 77.1875 30.3906 78.125 29.5312L86.9531 20.7031C87.8906 19.7656 89.375 19.7656 90.2344 20.7031C91.1719 21.6406 91.1719 23.125 90.2344 23.9844L81.4844 32.8125C81.0156 33.2812 80.3906 33.5156 79.7656 33.5156Z" fill="#444B54"/>
<path d="M88.6719 64.4531C88.0469 64.4531 87.5 64.2187 87.0313 63.75L78.125 54.9219C77.1875 53.9844 77.1875 52.5 78.125 51.6406C79.0625 50.7031 80.5469 50.7031 81.4062 51.6406L90.2344 60.4688C91.1719 61.4063 91.1719 62.8906 90.2344 63.75C89.8437 64.2187 89.2187 64.4531 88.6719 64.4531Z" fill="#444B54"/>
<path d="M66.7188 77.3438C65 75.7031 61.7188 63.5937 61.7188 41.4062C61.7188 19.2188 65 7.10937 66.7188 5.46875C67.8906 5.3125 71.0938 4.29688 71.0938 3.125C71.0938 1.79687 70.0781 0.78125 68.75 0.78125H53.125C49.7656 0.78125 47.5 4.84375 45.8594 13.9062C44.5313 21.25 43.75 31.0156 43.75 41.4062C43.75 51.7969 44.5313 61.5625 45.8594 68.9062C47.5 77.9687 49.7656 82.0312 53.125 82.0312H68.75C70.0781 82.0312 71.0938 81.0156 71.0938 79.6875C71.0938 78.5156 67.8906 77.5 66.7188 77.3438Z" fill="#FF9C71"/>
<path d="M74.4531 63.75C73.2031 63.5937 71.9531 64.4531 71.7969 65.7031C70.625 73.0469 69.375 75.9375 68.75 76.9531C67.2656 74.6875 65.0781 66.0938 64.2969 51.5625C69.4531 51.0156 73.4375 46.6406 73.4375 41.4062C73.4375 36.1719 69.4531 31.7969 64.2969 31.3281C65 16.7969 67.2656 8.20312 68.75 5.9375C69.4531 7.03125 70.7812 10.0781 71.9531 18.125C72.1094 19.375 73.3594 20.3125 74.6094 20.0781C75.8594 19.9219 76.7969 18.6719 76.5625 17.4219C75.4687 9.6875 73.5937 0.78125 68.75 0.78125C65.3906 0.78125 63.125 4.84375 61.4844 13.9062C60.1562 21.25 59.375 31.0156 59.375 41.4062C59.375 51.7969 60.1562 61.5625 61.4844 68.9062C63.125 77.9687 65.3906 82.0312 68.75 82.0312C72.4219 82.0312 74.7656 77.1875 76.4844 66.4062C76.6406 65.1562 75.7813 63.9062 74.4531 63.75Z" fill="#444B54"/>
</svg>
