<svg width="100" height="100" viewBox="0 0 100 100" fill="none" xmlns="http://www.w3.org/2000/svg">
<g clip-path="url(#clip0_1162_374)">
<path d="M18.75 17.1872C18.5938 17.1872 18.4375 17.1872 18.2812 17.109C18.125 17.109 17.9687 17.0309 17.8125 16.9528C17.6562 16.8747 17.5781 16.7965 17.4219 16.7184C17.2656 16.6403 17.1875 16.5622 17.1094 16.4059C17.0312 16.3278 16.875 16.1715 16.7969 16.0934C16.7188 15.9372 16.6406 15.859 16.5625 15.7028C16.4844 15.5465 16.4844 15.3903 16.4063 15.234C16.4063 15.0778 16.3281 14.9215 16.3281 14.7653C16.3281 14.1403 16.5625 13.5153 17.0312 13.1247C17.1094 13.0465 17.2656 12.8903 17.3438 12.8122C17.5 12.734 17.5781 12.6559 17.7344 12.5778C17.8906 12.4997 18.0469 12.4997 18.2031 12.4215C18.9844 12.2653 19.7656 12.4997 20.3125 13.0465C20.7813 13.5153 21.0156 14.0622 21.0156 14.6872C21.0156 14.8434 21.0156 14.9997 20.9375 15.1559C20.9375 15.3122 20.8594 15.4684 20.7813 15.6247C20.7031 15.7809 20.625 15.9372 20.5469 16.0153C20.4687 16.1715 20.3906 16.2497 20.2344 16.3278C20 16.9528 19.375 17.1872 18.75 17.1872Z" fill="#444B54"/>
<path d="M89.0625 0.78125H10.9375C5.3125 0.78125 0.78125 5.3125 0.78125 10.9375V34.375C0.78125 40 5.3125 44.5312 10.9375 44.5312C14.0625 44.5312 16.875 43.125 18.75 40.8594C20.625 43.125 23.4375 44.5312 26.5625 44.5312C29.6875 44.5312 32.5 43.125 34.375 40.8594C36.25 43.125 39.0625 44.5312 42.1875 44.5312C45.3125 44.5312 48.125 43.125 50 40.8594C51.875 43.125 54.6875 44.5312 57.8125 44.5312C60.9375 44.5312 63.75 43.125 65.625 40.8594C67.5 43.125 70.3125 44.5312 73.4375 44.5312C76.5625 44.5312 79.375 43.125 81.25 40.8594C83.125 43.125 85.9375 44.5312 89.0625 44.5312C94.6875 44.5312 99.2188 40 99.2188 34.375V10.9375C99.2188 5.3125 94.6875 0.78125 89.0625 0.78125ZM94.5312 34.375C94.5312 37.4219 92.1094 39.8438 89.0625 39.8438C86.0156 39.8438 83.5938 37.4219 83.5938 34.375V14.8438C83.5938 13.5156 82.5781 12.5 81.25 12.5C79.9219 12.5 78.9062 13.5156 78.9062 14.8438V34.375C78.9062 37.4219 76.4844 39.8438 73.4375 39.8438C70.3906 39.8438 67.9688 37.4219 67.9688 34.375V14.8438C67.9688 13.5156 66.9531 12.5 65.625 12.5C64.2969 12.5 63.2812 13.5156 63.2812 14.8438V34.375C63.2812 37.4219 60.8594 39.8438 57.8125 39.8438C54.7656 39.8438 52.3438 37.4219 52.3438 34.375V14.8438C52.3438 13.5156 51.3281 12.5 50 12.5C48.6719 12.5 47.6562 13.5156 47.6562 14.8438V34.375C47.6562 37.4219 45.2344 39.8438 42.1875 39.8438C39.1406 39.8438 36.7188 37.4219 36.7188 34.375V14.8438C36.7188 13.5156 35.7031 12.5 34.375 12.5C33.0469 12.5 32.0312 13.5156 32.0312 14.8438V34.375C32.0312 37.4219 29.6094 39.8438 26.5625 39.8438C23.5156 39.8438 21.0938 37.4219 21.0938 34.375V26.5625C21.0938 25.2344 20.0781 24.2188 18.75 24.2188C17.4219 24.2188 16.4062 25.2344 16.4062 26.5625V34.375C16.4062 37.4219 13.9844 39.8438 10.9375 39.8438C7.89062 39.8438 5.46875 37.4219 5.46875 34.375V10.9375C5.46875 7.89062 7.89062 5.46875 10.9375 5.46875H89.0625C92.1094 5.46875 94.5312 7.89062 94.5312 10.9375V34.375Z" fill="#444B54"/>
<path d="M10.9375 71.875C9.60937 71.875 8.59375 70.8594 8.59375 69.5312V50C8.59375 48.6719 9.60937 47.6562 10.9375 47.6562C12.2656 47.6562 13.2812 48.6719 13.2812 50V69.5312C13.2812 70.8594 12.2656 71.875 10.9375 71.875Z" fill="#444B54"/>
<path d="M39.0625 83.5938C37.7344 83.5938 36.7188 82.5781 36.7188 81.25V60.1562H25.7812V77.3438C25.7812 78.6719 24.7656 79.6875 23.4375 79.6875C22.1094 79.6875 21.0938 78.6719 21.0938 77.3438V57.8125C21.0938 56.4844 22.1094 55.4688 23.4375 55.4688H39.0625C40.3906 55.4688 41.4062 56.4844 41.4062 57.8125V81.25C41.4062 82.5781 40.3906 83.5938 39.0625 83.5938Z" fill="#444B54"/>
<path d="M77.3438 75.7812H54.6875C53.3594 75.7812 52.3438 74.7656 52.3438 73.4375V57.8125C52.3438 56.4844 53.3594 55.4688 54.6875 55.4688H77.3438C78.6719 55.4688 79.6875 56.4844 79.6875 57.8125V73.4375C79.6875 74.7656 78.6719 75.7812 77.3438 75.7812ZM57.0312 71.0938H75V60.1562H57.0312V71.0938Z" fill="#444B54"/>
<path d="M89.0625 64.8438C87.7344 64.8438 86.7188 63.8281 86.7188 62.5V50C86.7188 48.6719 87.7344 47.6562 89.0625 47.6562C90.3906 47.6562 91.4062 48.6719 91.4062 50V62.5C91.4062 63.8281 90.3906 64.8438 89.0625 64.8438Z" fill="#444B54"/>
<path d="M98.8283 79.9214C98.5158 79.3745 97.9689 79.062 97.3439 78.9058L86.4846 76.8745C85.2346 76.6401 83.9846 77.4995 83.7502 78.7495C83.5158 79.9995 84.3752 81.2495 85.6252 81.4839L91.0158 82.4995C64.6877 99.4526 29.9221 98.3589 4.60956 79.3745C3.59394 78.5933 2.10956 78.8276 1.32831 79.8433C0.547063 80.8589 0.781438 82.3433 1.79706 83.1245C16.0158 93.8276 33.0471 99.1401 50.0783 99.1401C65.2346 99.1401 80.3908 94.9214 93.5939 86.4058L92.5783 91.6401C92.3439 92.8901 93.2033 94.1401 94.4533 94.3745C94.6096 94.3745 94.7658 94.4526 94.9221 94.4526C96.0158 94.4526 97.0314 93.6714 97.1877 92.5776L99.2189 81.7183C99.2971 81.0933 99.1408 80.4683 98.8283 79.9214Z" fill="#FF9C71"/>
</g>
<defs>
<clipPath id="clip0_1162_374">
<rect width="100" height="100" fill="white"/>
</clipPath>
</defs>
</svg>
