<svg width="100" height="100" viewBox="0 0 100 100" fill="none" xmlns="http://www.w3.org/2000/svg">
<path d="M67.1875 99.2188H32.8125C22.9062 99.2188 14.8438 91.1563 14.8438 81.25V18.75C14.8438 8.84375 22.9062 0.78125 32.8125 0.78125H67.1875C77.0938 0.78125 85.1562 8.84375 85.1562 18.75V81.25C85.1562 91.1563 77.0938 99.2188 67.1875 99.2188ZM32.8125 5.46875C25.4922 5.46875 19.5312 11.4297 19.5312 18.75V81.25C19.5312 88.5703 25.4922 94.5312 32.8125 94.5312H67.1875C74.5078 94.5312 80.4688 88.5703 80.4688 81.25V18.75C80.4688 11.4297 74.5078 5.46875 67.1875 5.46875H32.8125Z" fill="#444B54"/>
<path d="M53.9062 16.4062H46.0938C44.7969 16.4062 43.75 15.3594 43.75 14.0625C43.75 12.7656 44.7969 11.7188 46.0938 11.7188H53.9062C55.2031 11.7188 56.25 12.7656 56.25 14.0625C56.25 15.3594 55.2031 16.4062 53.9062 16.4062Z" fill="#FF9C71"/>
</svg>
